<svg xmlns="http://www.w3.org/2000/svg" xmlns:xlink="http://www.w3.org/1999/xlink" width="600" height="400" viewBox="0 0 2400 1600">
<defs>
  <clipPath id="clip250">
    <rect x="0" y="0" width="2400" height="1600"></rect>
  </clipPath>
</defs>
<path clip-path="url(#clip250)" d="M0 1600 L2400 1600 L2400 0 L0 0  Z" fill="#ffffff" fill-rule="evenodd" fill-opacity="1"></path>
<defs>
  <clipPath id="clip251">
    <rect x="480" y="0" width="1681" height="1600"></rect>
  </clipPath>
</defs>
<path clip-path="url(#clip250)" d="M193.936 419.781 L2352.76 419.781 L2352.76 47.2441 L193.936 47.2441  Z" fill="#ffffff" fill-rule="evenodd" fill-opacity="1"></path>
<defs>
  <clipPath id="clip252">
    <rect x="193" y="47" width="2160" height="374"></rect>
  </clipPath>
</defs>
<polyline clip-path="url(#clip252)" style="stroke:#000000; stroke-linecap:round; stroke-linejoin:round; stroke-width:2; stroke-opacity:0.1; fill:none" points="238.742,419.781 238.742,47.2441 "></polyline>
<polyline clip-path="url(#clip252)" style="stroke:#000000; stroke-linecap:round; stroke-linejoin:round; stroke-width:2; stroke-opacity:0.1; fill:none" points="564.601,419.781 564.601,47.2441 "></polyline>
<polyline clip-path="url(#clip252)" style="stroke:#000000; stroke-linecap:round; stroke-linejoin:round; stroke-width:2; stroke-opacity:0.1; fill:none" points="890.461,419.781 890.461,47.2441 "></polyline>
<polyline clip-path="url(#clip252)" style="stroke:#000000; stroke-linecap:round; stroke-linejoin:round; stroke-width:2; stroke-opacity:0.1; fill:none" points="1216.32,419.781 1216.32,47.2441 "></polyline>
<polyline clip-path="url(#clip252)" style="stroke:#000000; stroke-linecap:round; stroke-linejoin:round; stroke-width:2; stroke-opacity:0.1; fill:none" points="1542.18,419.781 1542.18,47.2441 "></polyline>
<polyline clip-path="url(#clip252)" style="stroke:#000000; stroke-linecap:round; stroke-linejoin:round; stroke-width:2; stroke-opacity:0.1; fill:none" points="1868.04,419.781 1868.04,47.2441 "></polyline>
<polyline clip-path="url(#clip252)" style="stroke:#000000; stroke-linecap:round; stroke-linejoin:round; stroke-width:2; stroke-opacity:0.1; fill:none" points="2193.9,419.781 2193.9,47.2441 "></polyline>
<polyline clip-path="url(#clip250)" style="stroke:#000000; stroke-linecap:round; stroke-linejoin:round; stroke-width:4; stroke-opacity:1; fill:none" points="193.936,419.781 2352.76,419.781 "></polyline>
<polyline clip-path="url(#clip250)" style="stroke:#000000; stroke-linecap:round; stroke-linejoin:round; stroke-width:4; stroke-opacity:1; fill:none" points="238.742,419.781 238.742,400.884 "></polyline>
<polyline clip-path="url(#clip250)" style="stroke:#000000; stroke-linecap:round; stroke-linejoin:round; stroke-width:4; stroke-opacity:1; fill:none" points="564.601,419.781 564.601,400.884 "></polyline>
<polyline clip-path="url(#clip250)" style="stroke:#000000; stroke-linecap:round; stroke-linejoin:round; stroke-width:4; stroke-opacity:1; fill:none" points="890.461,419.781 890.461,400.884 "></polyline>
<polyline clip-path="url(#clip250)" style="stroke:#000000; stroke-linecap:round; stroke-linejoin:round; stroke-width:4; stroke-opacity:1; fill:none" points="1216.32,419.781 1216.32,400.884 "></polyline>
<polyline clip-path="url(#clip250)" style="stroke:#000000; stroke-linecap:round; stroke-linejoin:round; stroke-width:4; stroke-opacity:1; fill:none" points="1542.18,419.781 1542.18,400.884 "></polyline>
<polyline clip-path="url(#clip250)" style="stroke:#000000; stroke-linecap:round; stroke-linejoin:round; stroke-width:4; stroke-opacity:1; fill:none" points="1868.04,419.781 1868.04,400.884 "></polyline>
<polyline clip-path="url(#clip250)" style="stroke:#000000; stroke-linecap:round; stroke-linejoin:round; stroke-width:4; stroke-opacity:1; fill:none" points="2193.9,419.781 2193.9,400.884 "></polyline>
<path clip-path="url(#clip250)" d="M238.742 450.7 Q235.131 450.7 233.302 454.265 Q231.496 457.806 231.496 464.936 Q231.496 472.042 233.302 475.607 Q235.131 479.149 238.742 479.149 Q242.376 479.149 244.181 475.607 Q246.01 472.042 246.01 464.936 Q246.01 457.806 244.181 454.265 Q242.376 450.7 238.742 450.7 M238.742 446.996 Q244.552 446.996 247.607 451.603 Q250.686 456.186 250.686 464.936 Q250.686 473.663 247.607 478.269 Q244.552 482.853 238.742 482.853 Q232.932 482.853 229.853 478.269 Q226.797 473.663 226.797 464.936 Q226.797 456.186 229.853 451.603 Q232.932 446.996 238.742 446.996 Z" fill="#000000" fill-rule="nonzero" fill-opacity="1"></path><path clip-path="url(#clip250)" d="M543.375 478.246 L559.694 478.246 L559.694 482.181 L537.75 482.181 L537.75 478.246 Q540.412 475.491 544.995 470.862 Q549.601 466.209 550.782 464.866 Q553.027 462.343 553.907 460.607 Q554.81 458.848 554.81 457.158 Q554.81 454.404 552.865 452.667 Q550.944 450.931 547.842 450.931 Q545.643 450.931 543.189 451.695 Q540.759 452.459 537.981 454.01 L537.981 449.288 Q540.805 448.154 543.259 447.575 Q545.713 446.996 547.75 446.996 Q553.12 446.996 556.314 449.681 Q559.509 452.367 559.509 456.857 Q559.509 458.987 558.699 460.908 Q557.912 462.806 555.805 465.399 Q555.226 466.07 552.125 469.288 Q549.023 472.482 543.375 478.246 Z" fill="#000000" fill-rule="nonzero" fill-opacity="1"></path><path clip-path="url(#clip250)" d="M579.509 450.7 Q575.898 450.7 574.069 454.265 Q572.263 457.806 572.263 464.936 Q572.263 472.042 574.069 475.607 Q575.898 479.149 579.509 479.149 Q583.143 479.149 584.948 475.607 Q586.777 472.042 586.777 464.936 Q586.777 457.806 584.948 454.265 Q583.143 450.7 579.509 450.7 M579.509 446.996 Q585.319 446.996 588.374 451.603 Q591.453 456.186 591.453 464.936 Q591.453 473.663 588.374 478.269 Q585.319 482.853 579.509 482.853 Q573.698 482.853 570.62 478.269 Q567.564 473.663 567.564 464.936 Q567.564 456.186 570.62 451.603 Q573.698 446.996 579.509 446.996 Z" fill="#000000" fill-rule="nonzero" fill-opacity="1"></path><path clip-path="url(#clip250)" d="M878.632 451.695 L866.827 470.144 L878.632 470.144 L878.632 451.695 M877.405 447.621 L883.285 447.621 L883.285 470.144 L888.216 470.144 L888.216 474.033 L883.285 474.033 L883.285 482.181 L878.632 482.181 L878.632 474.033 L863.031 474.033 L863.031 469.519 L877.405 447.621 Z" fill="#000000" fill-rule="nonzero" fill-opacity="1"></path><path clip-path="url(#clip250)" d="M905.947 450.7 Q902.336 450.7 900.507 454.265 Q898.702 457.806 898.702 464.936 Q898.702 472.042 900.507 475.607 Q902.336 479.149 905.947 479.149 Q909.581 479.149 911.387 475.607 Q913.215 472.042 913.215 464.936 Q913.215 457.806 911.387 454.265 Q909.581 450.7 905.947 450.7 M905.947 446.996 Q911.757 446.996 914.813 451.603 Q917.891 456.186 917.891 464.936 Q917.891 473.663 914.813 478.269 Q911.757 482.853 905.947 482.853 Q900.137 482.853 897.058 478.269 Q894.003 473.663 894.003 464.936 Q894.003 456.186 897.058 451.603 Q900.137 446.996 905.947 446.996 Z" fill="#000000" fill-rule="nonzero" fill-opacity="1"></path><path clip-path="url(#clip250)" d="M1201.73 463.038 Q1198.58 463.038 1196.73 465.191 Q1194.9 467.343 1194.9 471.093 Q1194.9 474.82 1196.73 476.996 Q1198.58 479.149 1201.73 479.149 Q1204.87 479.149 1206.7 476.996 Q1208.55 474.82 1208.55 471.093 Q1208.55 467.343 1206.7 465.191 Q1204.87 463.038 1201.73 463.038 M1211.01 448.385 L1211.01 452.644 Q1209.25 451.811 1207.44 451.371 Q1205.66 450.931 1203.9 450.931 Q1199.27 450.931 1196.82 454.056 Q1194.39 457.181 1194.04 463.501 Q1195.41 461.487 1197.47 460.422 Q1199.53 459.334 1202 459.334 Q1207.21 459.334 1210.22 462.505 Q1213.25 465.654 1213.25 471.093 Q1213.25 476.417 1210.11 479.635 Q1206.96 482.853 1201.73 482.853 Q1195.73 482.853 1192.56 478.269 Q1189.39 473.663 1189.39 464.936 Q1189.39 456.742 1193.28 451.88 Q1197.17 446.996 1203.72 446.996 Q1205.48 446.996 1207.26 447.343 Q1209.06 447.691 1211.01 448.385 Z" fill="#000000" fill-rule="nonzero" fill-opacity="1"></path><path clip-path="url(#clip250)" d="M1231.31 450.7 Q1227.7 450.7 1225.87 454.265 Q1224.06 457.806 1224.06 464.936 Q1224.06 472.042 1225.87 475.607 Q1227.7 479.149 1231.31 479.149 Q1234.94 479.149 1236.75 475.607 Q1238.58 472.042 1238.58 464.936 Q1238.58 457.806 1236.75 454.265 Q1234.94 450.7 1231.31 450.7 M1231.31 446.996 Q1237.12 446.996 1240.17 451.603 Q1243.25 456.186 1243.25 464.936 Q1243.25 473.663 1240.17 478.269 Q1237.12 482.853 1231.31 482.853 Q1225.5 482.853 1222.42 478.269 Q1219.36 473.663 1219.36 464.936 Q1219.36 456.186 1222.42 451.603 Q1225.5 446.996 1231.31 446.996 Z" fill="#000000" fill-rule="nonzero" fill-opacity="1"></path><path clip-path="url(#clip250)" d="M1527.05 465.769 Q1523.72 465.769 1521.8 467.552 Q1519.9 469.334 1519.9 472.459 Q1519.9 475.584 1521.8 477.366 Q1523.72 479.149 1527.05 479.149 Q1530.39 479.149 1532.31 477.366 Q1534.23 475.561 1534.23 472.459 Q1534.23 469.334 1532.31 467.552 Q1530.41 465.769 1527.05 465.769 M1522.38 463.779 Q1519.37 463.038 1517.68 460.978 Q1516.01 458.917 1516.01 455.954 Q1516.01 451.811 1518.95 449.404 Q1521.91 446.996 1527.05 446.996 Q1532.21 446.996 1535.15 449.404 Q1538.09 451.811 1538.09 455.954 Q1538.09 458.917 1536.4 460.978 Q1534.74 463.038 1531.75 463.779 Q1535.13 464.566 1537.01 466.857 Q1538.9 469.149 1538.9 472.459 Q1538.9 477.482 1535.83 480.167 Q1532.77 482.853 1527.05 482.853 Q1521.34 482.853 1518.26 480.167 Q1515.2 477.482 1515.2 472.459 Q1515.2 469.149 1517.1 466.857 Q1519 464.566 1522.38 463.779 M1520.66 456.394 Q1520.66 459.079 1522.33 460.584 Q1524.02 462.089 1527.05 462.089 Q1530.06 462.089 1531.75 460.584 Q1533.46 459.079 1533.46 456.394 Q1533.46 453.709 1531.75 452.205 Q1530.06 450.7 1527.05 450.7 Q1524.02 450.7 1522.33 452.205 Q1520.66 453.709 1520.66 456.394 Z" fill="#000000" fill-rule="nonzero" fill-opacity="1"></path><path clip-path="url(#clip250)" d="M1557.21 450.7 Q1553.6 450.7 1551.77 454.265 Q1549.97 457.806 1549.97 464.936 Q1549.97 472.042 1551.77 475.607 Q1553.6 479.149 1557.21 479.149 Q1560.85 479.149 1562.65 475.607 Q1564.48 472.042 1564.48 464.936 Q1564.48 457.806 1562.65 454.265 Q1560.85 450.7 1557.21 450.7 M1557.21 446.996 Q1563.02 446.996 1566.08 451.603 Q1569.16 456.186 1569.16 464.936 Q1569.16 473.663 1566.08 478.269 Q1563.02 482.853 1557.21 482.853 Q1551.4 482.853 1548.33 478.269 Q1545.27 473.663 1545.27 464.936 Q1545.27 456.186 1548.33 451.603 Q1551.4 446.996 1557.21 446.996 Z" fill="#000000" fill-rule="nonzero" fill-opacity="1"></path><path clip-path="url(#clip250)" d="M1827.65 478.246 L1835.29 478.246 L1835.29 451.88 L1826.98 453.547 L1826.98 449.288 L1835.24 447.621 L1839.91 447.621 L1839.91 478.246 L1847.55 478.246 L1847.55 482.181 L1827.65 482.181 L1827.65 478.246 Z" fill="#000000" fill-rule="nonzero" fill-opacity="1"></path><path clip-path="url(#clip250)" d="M1867 450.7 Q1863.39 450.7 1861.56 454.265 Q1859.75 457.806 1859.75 464.936 Q1859.75 472.042 1861.56 475.607 Q1863.39 479.149 1867 479.149 Q1870.63 479.149 1872.44 475.607 Q1874.27 472.042 1874.27 464.936 Q1874.27 457.806 1872.44 454.265 Q1870.63 450.7 1867 450.7 M1867 446.996 Q1872.81 446.996 1875.86 451.603 Q1878.94 456.186 1878.94 464.936 Q1878.94 473.663 1875.86 478.269 Q1872.81 482.853 1867 482.853 Q1861.19 482.853 1858.11 478.269 Q1855.05 473.663 1855.05 464.936 Q1855.05 456.186 1858.11 451.603 Q1861.19 446.996 1867 446.996 Z" fill="#000000" fill-rule="nonzero" fill-opacity="1"></path><path clip-path="url(#clip250)" d="M1897.16 450.7 Q1893.55 450.7 1891.72 454.265 Q1889.91 457.806 1889.91 464.936 Q1889.91 472.042 1891.72 475.607 Q1893.55 479.149 1897.16 479.149 Q1900.79 479.149 1902.6 475.607 Q1904.43 472.042 1904.43 464.936 Q1904.43 457.806 1902.6 454.265 Q1900.79 450.7 1897.16 450.7 M1897.16 446.996 Q1902.97 446.996 1906.03 451.603 Q1909.1 456.186 1909.1 464.936 Q1909.1 473.663 1906.03 478.269 Q1902.97 482.853 1897.16 482.853 Q1891.35 482.853 1888.27 478.269 Q1885.22 473.663 1885.22 464.936 Q1885.22 456.186 1888.27 451.603 Q1891.35 446.996 1897.16 446.996 Z" fill="#000000" fill-rule="nonzero" fill-opacity="1"></path><path clip-path="url(#clip250)" d="M2153.51 478.246 L2161.14 478.246 L2161.14 451.88 L2152.83 453.547 L2152.83 449.288 L2161.1 447.621 L2165.77 447.621 L2165.77 478.246 L2173.41 478.246 L2173.41 482.181 L2153.51 482.181 L2153.51 478.246 Z" fill="#000000" fill-rule="nonzero" fill-opacity="1"></path><path clip-path="url(#clip250)" d="M2186.89 478.246 L2203.2 478.246 L2203.2 482.181 L2181.26 482.181 L2181.26 478.246 Q2183.92 475.491 2188.51 470.862 Q2193.11 466.209 2194.29 464.866 Q2196.54 462.343 2197.42 460.607 Q2198.32 458.848 2198.32 457.158 Q2198.32 454.404 2196.38 452.667 Q2194.45 450.931 2191.35 450.931 Q2189.15 450.931 2186.7 451.695 Q2184.27 452.459 2181.49 454.01 L2181.49 449.288 Q2184.32 448.154 2186.77 447.575 Q2189.22 446.996 2191.26 446.996 Q2196.63 446.996 2199.83 449.681 Q2203.02 452.367 2203.02 456.857 Q2203.02 458.987 2202.21 460.908 Q2201.42 462.806 2199.32 465.399 Q2198.74 466.07 2195.64 469.288 Q2192.53 472.482 2186.89 478.246 Z" fill="#000000" fill-rule="nonzero" fill-opacity="1"></path><path clip-path="url(#clip250)" d="M2223.02 450.7 Q2219.41 450.7 2217.58 454.265 Q2215.77 457.806 2215.77 464.936 Q2215.77 472.042 2217.58 475.607 Q2219.41 479.149 2223.02 479.149 Q2226.65 479.149 2228.46 475.607 Q2230.29 472.042 2230.29 464.936 Q2230.29 457.806 2228.46 454.265 Q2226.65 450.7 2223.02 450.7 M2223.02 446.996 Q2228.83 446.996 2231.89 451.603 Q2234.96 456.186 2234.96 464.936 Q2234.96 473.663 2231.89 478.269 Q2228.83 482.853 2223.02 482.853 Q2217.21 482.853 2214.13 478.269 Q2211.08 473.663 2211.08 464.936 Q2211.08 456.186 2214.13 451.603 Q2217.21 446.996 2223.02 446.996 Z" fill="#000000" fill-rule="nonzero" fill-opacity="1"></path><polyline clip-path="url(#clip252)" style="stroke:#000000; stroke-linecap:round; stroke-linejoin:round; stroke-width:2; stroke-opacity:0.1; fill:none" points="193.936,383.758 2352.76,383.758 "></polyline>
<polyline clip-path="url(#clip252)" style="stroke:#000000; stroke-linecap:round; stroke-linejoin:round; stroke-width:2; stroke-opacity:0.1; fill:none" points="193.936,300.523 2352.76,300.523 "></polyline>
<polyline clip-path="url(#clip252)" style="stroke:#000000; stroke-linecap:round; stroke-linejoin:round; stroke-width:2; stroke-opacity:0.1; fill:none" points="193.936,217.288 2352.76,217.288 "></polyline>
<polyline clip-path="url(#clip252)" style="stroke:#000000; stroke-linecap:round; stroke-linejoin:round; stroke-width:2; stroke-opacity:0.1; fill:none" points="193.936,134.053 2352.76,134.053 "></polyline>
<polyline clip-path="url(#clip252)" style="stroke:#000000; stroke-linecap:round; stroke-linejoin:round; stroke-width:2; stroke-opacity:0.1; fill:none" points="193.936,50.8185 2352.76,50.8185 "></polyline>
<polyline clip-path="url(#clip250)" style="stroke:#000000; stroke-linecap:round; stroke-linejoin:round; stroke-width:4; stroke-opacity:1; fill:none" points="193.936,419.781 193.936,47.2441 "></polyline>
<polyline clip-path="url(#clip250)" style="stroke:#000000; stroke-linecap:round; stroke-linejoin:round; stroke-width:4; stroke-opacity:1; fill:none" points="193.936,383.758 212.834,383.758 "></polyline>
<polyline clip-path="url(#clip250)" style="stroke:#000000; stroke-linecap:round; stroke-linejoin:round; stroke-width:4; stroke-opacity:1; fill:none" points="193.936,300.523 212.834,300.523 "></polyline>
<polyline clip-path="url(#clip250)" style="stroke:#000000; stroke-linecap:round; stroke-linejoin:round; stroke-width:4; stroke-opacity:1; fill:none" points="193.936,217.288 212.834,217.288 "></polyline>
<polyline clip-path="url(#clip250)" style="stroke:#000000; stroke-linecap:round; stroke-linejoin:round; stroke-width:4; stroke-opacity:1; fill:none" points="193.936,134.053 212.834,134.053 "></polyline>
<polyline clip-path="url(#clip250)" style="stroke:#000000; stroke-linecap:round; stroke-linejoin:round; stroke-width:4; stroke-opacity:1; fill:none" points="193.936,50.8185 212.834,50.8185 "></polyline>
<path clip-path="url(#clip250)" d="M97.8206 384.209 L127.496 384.209 L127.496 388.144 L97.8206 388.144 L97.8206 384.209 Z" fill="#000000" fill-rule="nonzero" fill-opacity="1"></path><path clip-path="url(#clip250)" d="M141.617 397.103 L157.936 397.103 L157.936 401.038 L135.992 401.038 L135.992 397.103 Q138.654 394.348 143.237 389.718 Q147.843 385.066 149.024 383.723 Q151.269 381.2 152.149 379.464 Q153.052 377.704 153.052 376.015 Q153.052 373.26 151.107 371.524 Q149.186 369.788 146.084 369.788 Q143.885 369.788 141.431 370.552 Q139.001 371.316 136.223 372.867 L136.223 368.144 Q139.047 367.01 141.501 366.431 Q143.955 365.853 145.992 365.853 Q151.362 365.853 154.556 368.538 Q157.751 371.223 157.751 375.714 Q157.751 377.843 156.941 379.765 Q156.154 381.663 154.047 384.255 Q153.468 384.927 150.367 388.144 Q147.265 391.339 141.617 397.103 Z" fill="#000000" fill-rule="nonzero" fill-opacity="1"></path><path clip-path="url(#clip250)" d="M97.4502 300.974 L127.126 300.974 L127.126 304.909 L97.4502 304.909 L97.4502 300.974 Z" fill="#000000" fill-rule="nonzero" fill-opacity="1"></path><path clip-path="url(#clip250)" d="M138.029 313.868 L145.668 313.868 L145.668 287.502 L137.357 289.169 L137.357 284.91 L145.621 283.243 L150.297 283.243 L150.297 313.868 L157.936 313.868 L157.936 317.803 L138.029 317.803 L138.029 313.868 Z" fill="#000000" fill-rule="nonzero" fill-opacity="1"></path><path clip-path="url(#clip250)" d="M145.992 203.087 Q142.381 203.087 140.552 206.652 Q138.746 210.193 138.746 217.323 Q138.746 224.429 140.552 227.994 Q142.381 231.536 145.992 231.536 Q149.626 231.536 151.431 227.994 Q153.26 224.429 153.26 217.323 Q153.26 210.193 151.431 206.652 Q149.626 203.087 145.992 203.087 M145.992 199.383 Q151.802 199.383 154.857 203.99 Q157.936 208.573 157.936 217.323 Q157.936 226.05 154.857 230.656 Q151.802 235.239 145.992 235.239 Q140.181 235.239 137.103 230.656 Q134.047 226.05 134.047 217.323 Q134.047 208.573 137.103 203.99 Q140.181 199.383 145.992 199.383 Z" fill="#000000" fill-rule="nonzero" fill-opacity="1"></path><path clip-path="url(#clip250)" d="M138.029 147.398 L145.668 147.398 L145.668 121.033 L137.357 122.699 L137.357 118.44 L145.621 116.773 L150.297 116.773 L150.297 147.398 L157.936 147.398 L157.936 151.333 L138.029 151.333 L138.029 147.398 Z" fill="#000000" fill-rule="nonzero" fill-opacity="1"></path><path clip-path="url(#clip250)" d="M141.617 64.1634 L157.936 64.1634 L157.936 68.0985 L135.992 68.0985 L135.992 64.1634 Q138.654 61.4087 143.237 56.7791 Q147.843 52.1264 149.024 50.7838 Q151.269 48.2607 152.149 46.5246 Q153.052 44.7653 153.052 43.0755 Q153.052 40.3209 151.107 38.5848 Q149.186 36.8487 146.084 36.8487 Q143.885 36.8487 141.431 37.6126 Q139.001 38.3765 136.223 39.9274 L136.223 35.2052 Q139.047 34.0709 141.501 33.4922 Q143.955 32.9135 145.992 32.9135 Q151.362 32.9135 154.556 35.5987 Q157.751 38.2839 157.751 42.7746 Q157.751 44.9042 156.941 46.8255 Q156.154 48.7236 154.047 51.3162 Q153.468 51.9875 150.367 55.2051 Q147.265 58.3995 141.617 64.1634 Z" fill="#000000" fill-rule="nonzero" fill-opacity="1"></path><polyline clip-path="url(#clip252)" style="stroke:#009af9; stroke-linecap:round; stroke-linejoin:round; stroke-width:4; stroke-opacity:1; fill:none" points="255.035,278.64 271.328,174.055 287.621,202.357 303.914,145.837 320.207,73.229 336.5,110.464 352.793,182.775 369.086,158.812 385.379,117.273 401.671,175.273 417.964,198.137 434.257,280.336 450.55,303.185 466.843,358.967 483.136,285.092 499.429,253.939 515.722,314.376 532.015,252.036 548.308,222.753 564.601,232.634 580.894,172.998 597.187,201.948 613.48,249.726 629.773,170.687 646.066,84.4389 662.359,135.489 678.652,57.7876 694.945,197.593 711.238,119.274 727.531,204.859 743.824,148.459 760.117,169.145 776.41,214.994 792.703,392.211 808.996,285.838 825.289,246.61 841.582,287.117 857.875,284.262 874.168,269.778 890.461,255.832 906.754,249.899 923.047,237.884 939.34,207.508 955.633,145.686 971.926,238.554 988.219,100.275 1004.51,133.985 1020.8,126.665 1037.1,120.627 1053.39,135.145 1069.68,233.318 1085.98,199.971 1102.27,143.101 1118.56,202.031 1134.86,272.534 1151.15,303.894 1167.44,263.221 1183.73,312.972 1200.03,271.522 1216.32,315.043 1232.61,248.816 1248.91,299.866 1265.2,249.867 1281.49,161.915 1297.79,175.324 1314.08,161.422 1330.37,180.626 1346.66,186.588 1362.96,157.94 1379.25,138.193 1395.54,95.4148 1411.84,138.727 1428.13,172.221 1444.42,148.363 1460.72,247.1 1477.01,175.545 1493.3,246.918 1509.59,385.399 1525.89,311.139 1542.18,333.038 1558.47,297.822 1574.77,237.233 1591.06,291.036 1607.35,255.464 1623.65,191.143 1639.94,149.487 1656.23,129.568 1672.52,203.634 1688.82,115.25 1705.11,137.827 1721.4,193.545 1737.7,196.024 1753.99,256.277 1770.28,118.763 1786.57,269.034 1802.87,225.483 1819.16,215.709 1835.45,212.938 1851.75,284.769 1868.04,245.662 1884.33,409.238 1900.63,266.699 1916.92,197.159 1933.21,329.285 1949.5,173.069 1965.8,173.644 1982.09,204.949 1998.38,188.611 2014.68,154.489 2030.97,215.158 2047.26,113.359 2063.56,233.23 2079.85,100.414 2096.14,165.81 2112.43,221.801 2128.73,215.362 2145.02,285.886 2161.31,253.433 2177.61,302.168 2193.9,290.109 2210.19,183.269 2226.49,244.914 2242.78,331.459 2259.07,287.511 2275.36,326.214 2291.66,264.969 "></polyline>
<path clip-path="url(#clip250)" d="M265.897 407.363 L534.209 407.363 L534.209 303.683 L265.897 303.683  Z" fill="#ffffff" fill-rule="evenodd" fill-opacity="1"></path>
<polyline clip-path="url(#clip250)" style="stroke:#000000; stroke-linecap:round; stroke-linejoin:round; stroke-width:4; stroke-opacity:1; fill:none" points="265.897,407.363 534.209,407.363 534.209,303.683 265.897,303.683 265.897,407.363 "></polyline>
<polyline clip-path="url(#clip250)" style="stroke:#009af9; stroke-linecap:round; stroke-linejoin:round; stroke-width:4; stroke-opacity:1; fill:none" points="289.884,355.523 433.805,355.523 "></polyline>
<path clip-path="url(#clip250)" d="M471.634 375.211 Q469.829 379.84 468.116 381.252 Q466.403 382.664 463.532 382.664 L460.13 382.664 L460.13 379.1 L462.63 379.1 Q464.389 379.1 465.361 378.266 Q466.333 377.433 467.514 374.331 L468.278 372.387 L457.792 346.878 L462.306 346.878 L470.407 367.155 L478.509 346.878 L483.023 346.878 L471.634 375.211 Z" fill="#000000" fill-rule="nonzero" fill-opacity="1"></path><path clip-path="url(#clip250)" d="M490.315 368.868 L497.954 368.868 L497.954 342.503 L489.643 344.169 L489.643 339.91 L497.907 338.243 L502.583 338.243 L502.583 368.868 L510.222 368.868 L510.222 372.803 L490.315 372.803 L490.315 368.868 Z" fill="#000000" fill-rule="nonzero" fill-opacity="1"></path><path clip-path="url(#clip250)" d="M193.936 953.115 L2352.76 953.115 L2352.76 580.577 L193.936 580.577  Z" fill="#ffffff" fill-rule="evenodd" fill-opacity="1"></path>
<defs>
  <clipPath id="clip253">
    <rect x="193" y="580" width="2160" height="374"></rect>
  </clipPath>
</defs>
<polyline clip-path="url(#clip253)" style="stroke:#000000; stroke-linecap:round; stroke-linejoin:round; stroke-width:2; stroke-opacity:0.1; fill:none" points="238.742,953.115 238.742,580.577 "></polyline>
<polyline clip-path="url(#clip253)" style="stroke:#000000; stroke-linecap:round; stroke-linejoin:round; stroke-width:2; stroke-opacity:0.1; fill:none" points="564.601,953.115 564.601,580.577 "></polyline>
<polyline clip-path="url(#clip253)" style="stroke:#000000; stroke-linecap:round; stroke-linejoin:round; stroke-width:2; stroke-opacity:0.1; fill:none" points="890.461,953.115 890.461,580.577 "></polyline>
<polyline clip-path="url(#clip253)" style="stroke:#000000; stroke-linecap:round; stroke-linejoin:round; stroke-width:2; stroke-opacity:0.1; fill:none" points="1216.32,953.115 1216.32,580.577 "></polyline>
<polyline clip-path="url(#clip253)" style="stroke:#000000; stroke-linecap:round; stroke-linejoin:round; stroke-width:2; stroke-opacity:0.1; fill:none" points="1542.18,953.115 1542.18,580.577 "></polyline>
<polyline clip-path="url(#clip253)" style="stroke:#000000; stroke-linecap:round; stroke-linejoin:round; stroke-width:2; stroke-opacity:0.1; fill:none" points="1868.04,953.115 1868.04,580.577 "></polyline>
<polyline clip-path="url(#clip253)" style="stroke:#000000; stroke-linecap:round; stroke-linejoin:round; stroke-width:2; stroke-opacity:0.1; fill:none" points="2193.9,953.115 2193.9,580.577 "></polyline>
<polyline clip-path="url(#clip250)" style="stroke:#000000; stroke-linecap:round; stroke-linejoin:round; stroke-width:4; stroke-opacity:1; fill:none" points="193.936,953.115 2352.76,953.115 "></polyline>
<polyline clip-path="url(#clip250)" style="stroke:#000000; stroke-linecap:round; stroke-linejoin:round; stroke-width:4; stroke-opacity:1; fill:none" points="238.742,953.115 238.742,934.217 "></polyline>
<polyline clip-path="url(#clip250)" style="stroke:#000000; stroke-linecap:round; stroke-linejoin:round; stroke-width:4; stroke-opacity:1; fill:none" points="564.601,953.115 564.601,934.217 "></polyline>
<polyline clip-path="url(#clip250)" style="stroke:#000000; stroke-linecap:round; stroke-linejoin:round; stroke-width:4; stroke-opacity:1; fill:none" points="890.461,953.115 890.461,934.217 "></polyline>
<polyline clip-path="url(#clip250)" style="stroke:#000000; stroke-linecap:round; stroke-linejoin:round; stroke-width:4; stroke-opacity:1; fill:none" points="1216.32,953.115 1216.32,934.217 "></polyline>
<polyline clip-path="url(#clip250)" style="stroke:#000000; stroke-linecap:round; stroke-linejoin:round; stroke-width:4; stroke-opacity:1; fill:none" points="1542.18,953.115 1542.18,934.217 "></polyline>
<polyline clip-path="url(#clip250)" style="stroke:#000000; stroke-linecap:round; stroke-linejoin:round; stroke-width:4; stroke-opacity:1; fill:none" points="1868.04,953.115 1868.04,934.217 "></polyline>
<polyline clip-path="url(#clip250)" style="stroke:#000000; stroke-linecap:round; stroke-linejoin:round; stroke-width:4; stroke-opacity:1; fill:none" points="2193.9,953.115 2193.9,934.217 "></polyline>
<path clip-path="url(#clip250)" d="M238.742 984.033 Q235.131 984.033 233.302 987.598 Q231.496 991.14 231.496 998.269 Q231.496 1005.38 233.302 1008.94 Q235.131 1012.48 238.742 1012.48 Q242.376 1012.48 244.181 1008.94 Q246.01 1005.38 246.01 998.269 Q246.01 991.14 244.181 987.598 Q242.376 984.033 238.742 984.033 M238.742 980.33 Q244.552 980.33 247.607 984.936 Q250.686 989.519 250.686 998.269 Q250.686 1007 247.607 1011.6 Q244.552 1016.19 238.742 1016.19 Q232.932 1016.19 229.853 1011.6 Q226.797 1007 226.797 998.269 Q226.797 989.519 229.853 984.936 Q232.932 980.33 238.742 980.33 Z" fill="#000000" fill-rule="nonzero" fill-opacity="1"></path><path clip-path="url(#clip250)" d="M543.375 1011.58 L559.694 1011.58 L559.694 1015.51 L537.75 1015.51 L537.75 1011.58 Q540.412 1008.82 544.995 1004.2 Q549.601 999.542 550.782 998.2 Q553.027 995.677 553.907 993.941 Q554.81 992.181 554.81 990.492 Q554.81 987.737 552.865 986.001 Q550.944 984.265 547.842 984.265 Q545.643 984.265 543.189 985.029 Q540.759 985.792 537.981 987.343 L537.981 982.621 Q540.805 981.487 543.259 980.908 Q545.713 980.33 547.75 980.33 Q553.12 980.33 556.314 983.015 Q559.509 985.7 559.509 990.191 Q559.509 992.32 558.699 994.242 Q557.912 996.14 555.805 998.732 Q555.226 999.404 552.125 1002.62 Q549.023 1005.82 543.375 1011.58 Z" fill="#000000" fill-rule="nonzero" fill-opacity="1"></path><path clip-path="url(#clip250)" d="M579.509 984.033 Q575.898 984.033 574.069 987.598 Q572.263 991.14 572.263 998.269 Q572.263 1005.38 574.069 1008.94 Q575.898 1012.48 579.509 1012.48 Q583.143 1012.48 584.948 1008.94 Q586.777 1005.38 586.777 998.269 Q586.777 991.14 584.948 987.598 Q583.143 984.033 579.509 984.033 M579.509 980.33 Q585.319 980.33 588.374 984.936 Q591.453 989.519 591.453 998.269 Q591.453 1007 588.374 1011.6 Q585.319 1016.19 579.509 1016.19 Q573.698 1016.19 570.62 1011.6 Q567.564 1007 567.564 998.269 Q567.564 989.519 570.62 984.936 Q573.698 980.33 579.509 980.33 Z" fill="#000000" fill-rule="nonzero" fill-opacity="1"></path><path clip-path="url(#clip250)" d="M878.632 985.029 L866.827 1003.48 L878.632 1003.48 L878.632 985.029 M877.405 980.955 L883.285 980.955 L883.285 1003.48 L888.216 1003.48 L888.216 1007.37 L883.285 1007.37 L883.285 1015.51 L878.632 1015.51 L878.632 1007.37 L863.031 1007.37 L863.031 1002.85 L877.405 980.955 Z" fill="#000000" fill-rule="nonzero" fill-opacity="1"></path><path clip-path="url(#clip250)" d="M905.947 984.033 Q902.336 984.033 900.507 987.598 Q898.702 991.14 898.702 998.269 Q898.702 1005.38 900.507 1008.94 Q902.336 1012.48 905.947 1012.48 Q909.581 1012.48 911.387 1008.94 Q913.215 1005.38 913.215 998.269 Q913.215 991.14 911.387 987.598 Q909.581 984.033 905.947 984.033 M905.947 980.33 Q911.757 980.33 914.813 984.936 Q917.891 989.519 917.891 998.269 Q917.891 1007 914.813 1011.6 Q911.757 1016.19 905.947 1016.19 Q900.137 1016.19 897.058 1011.6 Q894.003 1007 894.003 998.269 Q894.003 989.519 897.058 984.936 Q900.137 980.33 905.947 980.33 Z" fill="#000000" fill-rule="nonzero" fill-opacity="1"></path><path clip-path="url(#clip250)" d="M1201.73 996.371 Q1198.58 996.371 1196.73 998.524 Q1194.9 1000.68 1194.9 1004.43 Q1194.9 1008.15 1196.73 1010.33 Q1198.58 1012.48 1201.73 1012.48 Q1204.87 1012.48 1206.7 1010.33 Q1208.55 1008.15 1208.55 1004.43 Q1208.55 1000.68 1206.7 998.524 Q1204.87 996.371 1201.73 996.371 M1211.01 981.718 L1211.01 985.978 Q1209.25 985.144 1207.44 984.705 Q1205.66 984.265 1203.9 984.265 Q1199.27 984.265 1196.82 987.39 Q1194.39 990.515 1194.04 996.834 Q1195.41 994.82 1197.47 993.755 Q1199.53 992.667 1202 992.667 Q1207.21 992.667 1210.22 995.839 Q1213.25 998.987 1213.25 1004.43 Q1213.25 1009.75 1210.11 1012.97 Q1206.96 1016.19 1201.73 1016.19 Q1195.73 1016.19 1192.56 1011.6 Q1189.39 1007 1189.39 998.269 Q1189.39 990.075 1193.28 985.214 Q1197.17 980.33 1203.72 980.33 Q1205.48 980.33 1207.26 980.677 Q1209.06 981.024 1211.01 981.718 Z" fill="#000000" fill-rule="nonzero" fill-opacity="1"></path><path clip-path="url(#clip250)" d="M1231.31 984.033 Q1227.7 984.033 1225.87 987.598 Q1224.06 991.14 1224.06 998.269 Q1224.06 1005.38 1225.87 1008.94 Q1227.7 1012.48 1231.31 1012.48 Q1234.94 1012.48 1236.75 1008.94 Q1238.58 1005.38 1238.58 998.269 Q1238.58 991.14 1236.75 987.598 Q1234.94 984.033 1231.31 984.033 M1231.31 980.33 Q1237.12 980.33 1240.17 984.936 Q1243.25 989.519 1243.25 998.269 Q1243.25 1007 1240.17 1011.6 Q1237.12 1016.19 1231.31 1016.19 Q1225.5 1016.19 1222.42 1011.6 Q1219.36 1007 1219.36 998.269 Q1219.36 989.519 1222.42 984.936 Q1225.5 980.33 1231.31 980.33 Z" fill="#000000" fill-rule="nonzero" fill-opacity="1"></path><path clip-path="url(#clip250)" d="M1527.05 999.103 Q1523.72 999.103 1521.8 1000.88 Q1519.9 1002.67 1519.9 1005.79 Q1519.9 1008.92 1521.8 1010.7 Q1523.72 1012.48 1527.05 1012.48 Q1530.39 1012.48 1532.31 1010.7 Q1534.23 1008.89 1534.23 1005.79 Q1534.23 1002.67 1532.31 1000.88 Q1530.41 999.103 1527.05 999.103 M1522.38 997.112 Q1519.37 996.371 1517.68 994.311 Q1516.01 992.251 1516.01 989.288 Q1516.01 985.144 1518.95 982.737 Q1521.91 980.33 1527.05 980.33 Q1532.21 980.33 1535.15 982.737 Q1538.09 985.144 1538.09 989.288 Q1538.09 992.251 1536.4 994.311 Q1534.74 996.371 1531.75 997.112 Q1535.13 997.899 1537.01 1000.19 Q1538.9 1002.48 1538.9 1005.79 Q1538.9 1010.82 1535.83 1013.5 Q1532.77 1016.19 1527.05 1016.19 Q1521.34 1016.19 1518.26 1013.5 Q1515.2 1010.82 1515.2 1005.79 Q1515.2 1002.48 1517.1 1000.19 Q1519 997.899 1522.38 997.112 M1520.66 989.728 Q1520.66 992.413 1522.33 993.917 Q1524.02 995.422 1527.05 995.422 Q1530.06 995.422 1531.75 993.917 Q1533.46 992.413 1533.46 989.728 Q1533.46 987.042 1531.75 985.538 Q1530.06 984.033 1527.05 984.033 Q1524.02 984.033 1522.33 985.538 Q1520.66 987.042 1520.66 989.728 Z" fill="#000000" fill-rule="nonzero" fill-opacity="1"></path><path clip-path="url(#clip250)" d="M1557.21 984.033 Q1553.6 984.033 1551.77 987.598 Q1549.97 991.14 1549.97 998.269 Q1549.97 1005.38 1551.77 1008.94 Q1553.6 1012.48 1557.21 1012.48 Q1560.85 1012.48 1562.65 1008.94 Q1564.48 1005.38 1564.48 998.269 Q1564.48 991.14 1562.65 987.598 Q1560.85 984.033 1557.21 984.033 M1557.21 980.33 Q1563.02 980.33 1566.08 984.936 Q1569.16 989.519 1569.16 998.269 Q1569.16 1007 1566.08 1011.6 Q1563.02 1016.19 1557.21 1016.19 Q1551.4 1016.19 1548.33 1011.6 Q1545.27 1007 1545.27 998.269 Q1545.27 989.519 1548.33 984.936 Q1551.4 980.33 1557.21 980.33 Z" fill="#000000" fill-rule="nonzero" fill-opacity="1"></path><path clip-path="url(#clip250)" d="M1827.65 1011.58 L1835.29 1011.58 L1835.29 985.214 L1826.98 986.88 L1826.98 982.621 L1835.24 980.955 L1839.91 980.955 L1839.91 1011.58 L1847.55 1011.58 L1847.55 1015.51 L1827.65 1015.51 L1827.65 1011.58 Z" fill="#000000" fill-rule="nonzero" fill-opacity="1"></path><path clip-path="url(#clip250)" d="M1867 984.033 Q1863.39 984.033 1861.56 987.598 Q1859.75 991.14 1859.75 998.269 Q1859.75 1005.38 1861.56 1008.94 Q1863.39 1012.48 1867 1012.48 Q1870.63 1012.48 1872.44 1008.94 Q1874.27 1005.38 1874.27 998.269 Q1874.27 991.14 1872.44 987.598 Q1870.63 984.033 1867 984.033 M1867 980.33 Q1872.81 980.33 1875.86 984.936 Q1878.94 989.519 1878.94 998.269 Q1878.94 1007 1875.86 1011.6 Q1872.81 1016.19 1867 1016.19 Q1861.19 1016.19 1858.11 1011.6 Q1855.05 1007 1855.05 998.269 Q1855.05 989.519 1858.11 984.936 Q1861.19 980.33 1867 980.33 Z" fill="#000000" fill-rule="nonzero" fill-opacity="1"></path><path clip-path="url(#clip250)" d="M1897.16 984.033 Q1893.55 984.033 1891.72 987.598 Q1889.91 991.14 1889.91 998.269 Q1889.91 1005.38 1891.72 1008.94 Q1893.55 1012.48 1897.16 1012.48 Q1900.79 1012.48 1902.6 1008.94 Q1904.43 1005.38 1904.43 998.269 Q1904.43 991.14 1902.6 987.598 Q1900.79 984.033 1897.16 984.033 M1897.16 980.33 Q1902.97 980.33 1906.03 984.936 Q1909.1 989.519 1909.1 998.269 Q1909.1 1007 1906.03 1011.6 Q1902.97 1016.19 1897.16 1016.19 Q1891.35 1016.19 1888.27 1011.6 Q1885.22 1007 1885.22 998.269 Q1885.22 989.519 1888.27 984.936 Q1891.35 980.33 1897.16 980.33 Z" fill="#000000" fill-rule="nonzero" fill-opacity="1"></path><path clip-path="url(#clip250)" d="M2153.51 1011.58 L2161.14 1011.58 L2161.14 985.214 L2152.83 986.88 L2152.83 982.621 L2161.1 980.955 L2165.77 980.955 L2165.77 1011.58 L2173.41 1011.58 L2173.41 1015.51 L2153.51 1015.51 L2153.51 1011.58 Z" fill="#000000" fill-rule="nonzero" fill-opacity="1"></path><path clip-path="url(#clip250)" d="M2186.89 1011.58 L2203.2 1011.58 L2203.2 1015.51 L2181.26 1015.51 L2181.26 1011.58 Q2183.92 1008.82 2188.51 1004.2 Q2193.11 999.542 2194.29 998.2 Q2196.54 995.677 2197.42 993.941 Q2198.32 992.181 2198.32 990.492 Q2198.32 987.737 2196.38 986.001 Q2194.45 984.265 2191.35 984.265 Q2189.15 984.265 2186.7 985.029 Q2184.27 985.792 2181.49 987.343 L2181.49 982.621 Q2184.32 981.487 2186.77 980.908 Q2189.22 980.33 2191.26 980.33 Q2196.63 980.33 2199.83 983.015 Q2203.02 985.7 2203.02 990.191 Q2203.02 992.32 2202.21 994.242 Q2201.42 996.14 2199.32 998.732 Q2198.74 999.404 2195.64 1002.62 Q2192.53 1005.82 2186.89 1011.58 Z" fill="#000000" fill-rule="nonzero" fill-opacity="1"></path><path clip-path="url(#clip250)" d="M2223.02 984.033 Q2219.41 984.033 2217.58 987.598 Q2215.77 991.14 2215.77 998.269 Q2215.77 1005.38 2217.58 1008.94 Q2219.41 1012.48 2223.02 1012.48 Q2226.65 1012.48 2228.46 1008.94 Q2230.29 1005.38 2230.29 998.269 Q2230.29 991.14 2228.46 987.598 Q2226.65 984.033 2223.02 984.033 M2223.02 980.33 Q2228.83 980.33 2231.89 984.936 Q2234.96 989.519 2234.96 998.269 Q2234.96 1007 2231.89 1011.6 Q2228.83 1016.19 2223.02 1016.19 Q2217.21 1016.19 2214.13 1011.6 Q2211.08 1007 2211.08 998.269 Q2211.08 989.519 2214.13 984.936 Q2217.21 980.33 2223.02 980.33 Z" fill="#000000" fill-rule="nonzero" fill-opacity="1"></path><polyline clip-path="url(#clip253)" style="stroke:#000000; stroke-linecap:round; stroke-linejoin:round; stroke-width:2; stroke-opacity:0.1; fill:none" points="193.936,943.246 2352.76,943.246 "></polyline>
<polyline clip-path="url(#clip253)" style="stroke:#000000; stroke-linecap:round; stroke-linejoin:round; stroke-width:2; stroke-opacity:0.1; fill:none" points="193.936,855.215 2352.76,855.215 "></polyline>
<polyline clip-path="url(#clip253)" style="stroke:#000000; stroke-linecap:round; stroke-linejoin:round; stroke-width:2; stroke-opacity:0.1; fill:none" points="193.936,767.183 2352.76,767.183 "></polyline>
<polyline clip-path="url(#clip253)" style="stroke:#000000; stroke-linecap:round; stroke-linejoin:round; stroke-width:2; stroke-opacity:0.1; fill:none" points="193.936,679.151 2352.76,679.151 "></polyline>
<polyline clip-path="url(#clip253)" style="stroke:#000000; stroke-linecap:round; stroke-linejoin:round; stroke-width:2; stroke-opacity:0.1; fill:none" points="193.936,591.12 2352.76,591.12 "></polyline>
<polyline clip-path="url(#clip250)" style="stroke:#000000; stroke-linecap:round; stroke-linejoin:round; stroke-width:4; stroke-opacity:1; fill:none" points="193.936,953.115 193.936,580.577 "></polyline>
<polyline clip-path="url(#clip250)" style="stroke:#000000; stroke-linecap:round; stroke-linejoin:round; stroke-width:4; stroke-opacity:1; fill:none" points="193.936,943.246 212.834,943.246 "></polyline>
<polyline clip-path="url(#clip250)" style="stroke:#000000; stroke-linecap:round; stroke-linejoin:round; stroke-width:4; stroke-opacity:1; fill:none" points="193.936,855.215 212.834,855.215 "></polyline>
<polyline clip-path="url(#clip250)" style="stroke:#000000; stroke-linecap:round; stroke-linejoin:round; stroke-width:4; stroke-opacity:1; fill:none" points="193.936,767.183 212.834,767.183 "></polyline>
<polyline clip-path="url(#clip250)" style="stroke:#000000; stroke-linecap:round; stroke-linejoin:round; stroke-width:4; stroke-opacity:1; fill:none" points="193.936,679.151 212.834,679.151 "></polyline>
<polyline clip-path="url(#clip250)" style="stroke:#000000; stroke-linecap:round; stroke-linejoin:round; stroke-width:4; stroke-opacity:1; fill:none" points="193.936,591.12 212.834,591.12 "></polyline>
<path clip-path="url(#clip250)" d="M50.9921 943.698 L80.6679 943.698 L80.6679 947.633 L50.9921 947.633 L50.9921 943.698 Z" fill="#000000" fill-rule="nonzero" fill-opacity="1"></path><path clip-path="url(#clip250)" d="M91.5706 956.591 L99.2095 956.591 L99.2095 930.226 L90.8993 931.892 L90.8993 927.633 L99.1632 925.966 L103.839 925.966 L103.839 956.591 L111.478 956.591 L111.478 960.526 L91.5706 960.526 L91.5706 956.591 Z" fill="#000000" fill-rule="nonzero" fill-opacity="1"></path><path clip-path="url(#clip250)" d="M120.922 954.647 L125.807 954.647 L125.807 960.526 L120.922 960.526 L120.922 954.647 Z" fill="#000000" fill-rule="nonzero" fill-opacity="1"></path><path clip-path="url(#clip250)" d="M145.992 929.045 Q142.381 929.045 140.552 932.61 Q138.746 936.151 138.746 943.281 Q138.746 950.387 140.552 953.952 Q142.381 957.494 145.992 957.494 Q149.626 957.494 151.431 953.952 Q153.26 950.387 153.26 943.281 Q153.26 936.151 151.431 932.61 Q149.626 929.045 145.992 929.045 M145.992 925.341 Q151.802 925.341 154.857 929.948 Q157.936 934.531 157.936 943.281 Q157.936 952.008 154.857 956.614 Q151.802 961.198 145.992 961.198 Q140.181 961.198 137.103 956.614 Q134.047 952.008 134.047 943.281 Q134.047 934.531 137.103 929.948 Q140.181 925.341 145.992 925.341 Z" fill="#000000" fill-rule="nonzero" fill-opacity="1"></path><path clip-path="url(#clip250)" d="M51.9875 855.666 L81.6633 855.666 L81.6633 859.601 L51.9875 859.601 L51.9875 855.666 Z" fill="#000000" fill-rule="nonzero" fill-opacity="1"></path><path clip-path="url(#clip250)" d="M101.756 841.013 Q98.1447 841.013 96.316 844.578 Q94.5104 848.12 94.5104 855.249 Q94.5104 862.356 96.316 865.921 Q98.1447 869.462 101.756 869.462 Q105.39 869.462 107.196 865.921 Q109.024 862.356 109.024 855.249 Q109.024 848.12 107.196 844.578 Q105.39 841.013 101.756 841.013 M101.756 837.31 Q107.566 837.31 110.621 841.916 Q113.7 846.499 113.7 855.249 Q113.7 863.976 110.621 868.583 Q107.566 873.166 101.756 873.166 Q95.9456 873.166 92.8669 868.583 Q89.8114 863.976 89.8114 855.249 Q89.8114 846.499 92.8669 841.916 Q95.9456 837.31 101.756 837.31 Z" fill="#000000" fill-rule="nonzero" fill-opacity="1"></path><path clip-path="url(#clip250)" d="M121.918 866.615 L126.802 866.615 L126.802 872.495 L121.918 872.495 L121.918 866.615 Z" fill="#000000" fill-rule="nonzero" fill-opacity="1"></path><path clip-path="url(#clip250)" d="M137.033 837.935 L155.39 837.935 L155.39 841.87 L141.316 841.87 L141.316 850.342 Q142.334 849.995 143.353 849.833 Q144.371 849.648 145.39 849.648 Q151.177 849.648 154.556 852.819 Q157.936 855.99 157.936 861.407 Q157.936 866.985 154.464 870.087 Q150.992 873.166 144.672 873.166 Q142.496 873.166 140.228 872.796 Q137.982 872.425 135.575 871.685 L135.575 866.985 Q137.658 868.12 139.881 868.675 Q142.103 869.231 144.58 869.231 Q148.584 869.231 150.922 867.124 Q153.26 865.018 153.26 861.407 Q153.26 857.796 150.922 855.689 Q148.584 853.583 144.58 853.583 Q142.705 853.583 140.83 853.999 Q138.978 854.416 137.033 855.296 L137.033 837.935 Z" fill="#000000" fill-rule="nonzero" fill-opacity="1"></path><path clip-path="url(#clip250)" d="M100.76 752.982 Q97.1493 752.982 95.3206 756.547 Q93.515 760.088 93.515 767.218 Q93.515 774.324 95.3206 777.889 Q97.1493 781.431 100.76 781.431 Q104.395 781.431 106.2 777.889 Q108.029 774.324 108.029 767.218 Q108.029 760.088 106.2 756.547 Q104.395 752.982 100.76 752.982 M100.76 749.278 Q106.571 749.278 109.626 753.885 Q112.705 758.468 112.705 767.218 Q112.705 775.945 109.626 780.551 Q106.571 785.134 100.76 785.134 Q94.9502 785.134 91.8715 780.551 Q88.816 775.945 88.816 767.218 Q88.816 758.468 91.8715 753.885 Q94.9502 749.278 100.76 749.278 Z" fill="#000000" fill-rule="nonzero" fill-opacity="1"></path><path clip-path="url(#clip250)" d="M120.922 778.583 L125.807 778.583 L125.807 784.463 L120.922 784.463 L120.922 778.583 Z" fill="#000000" fill-rule="nonzero" fill-opacity="1"></path><path clip-path="url(#clip250)" d="M145.992 752.982 Q142.381 752.982 140.552 756.547 Q138.746 760.088 138.746 767.218 Q138.746 774.324 140.552 777.889 Q142.381 781.431 145.992 781.431 Q149.626 781.431 151.431 777.889 Q153.26 774.324 153.26 767.218 Q153.26 760.088 151.431 756.547 Q149.626 752.982 145.992 752.982 M145.992 749.278 Q151.802 749.278 154.857 753.885 Q157.936 758.468 157.936 767.218 Q157.936 775.945 154.857 780.551 Q151.802 785.134 145.992 785.134 Q140.181 785.134 137.103 780.551 Q134.047 775.945 134.047 767.218 Q134.047 758.468 137.103 753.885 Q140.181 749.278 145.992 749.278 Z" fill="#000000" fill-rule="nonzero" fill-opacity="1"></path><path clip-path="url(#clip250)" d="M101.756 664.95 Q98.1447 664.95 96.316 668.515 Q94.5104 672.057 94.5104 679.186 Q94.5104 686.293 96.316 689.857 Q98.1447 693.399 101.756 693.399 Q105.39 693.399 107.196 689.857 Q109.024 686.293 109.024 679.186 Q109.024 672.057 107.196 668.515 Q105.39 664.95 101.756 664.95 M101.756 661.246 Q107.566 661.246 110.621 665.853 Q113.7 670.436 113.7 679.186 Q113.7 687.913 110.621 692.519 Q107.566 697.103 101.756 697.103 Q95.9456 697.103 92.8669 692.519 Q89.8114 687.913 89.8114 679.186 Q89.8114 670.436 92.8669 665.853 Q95.9456 661.246 101.756 661.246 Z" fill="#000000" fill-rule="nonzero" fill-opacity="1"></path><path clip-path="url(#clip250)" d="M121.918 690.552 L126.802 690.552 L126.802 696.431 L121.918 696.431 L121.918 690.552 Z" fill="#000000" fill-rule="nonzero" fill-opacity="1"></path><path clip-path="url(#clip250)" d="M137.033 661.871 L155.39 661.871 L155.39 665.807 L141.316 665.807 L141.316 674.279 Q142.334 673.932 143.353 673.77 Q144.371 673.584 145.39 673.584 Q151.177 673.584 154.556 676.756 Q157.936 679.927 157.936 685.344 Q157.936 690.922 154.464 694.024 Q150.992 697.103 144.672 697.103 Q142.496 697.103 140.228 696.732 Q137.982 696.362 135.575 695.621 L135.575 690.922 Q137.658 692.056 139.881 692.612 Q142.103 693.168 144.58 693.168 Q148.584 693.168 150.922 691.061 Q153.26 688.955 153.26 685.344 Q153.26 681.732 150.922 679.626 Q148.584 677.52 144.58 677.52 Q142.705 677.52 140.83 677.936 Q138.978 678.353 137.033 679.232 L137.033 661.871 Z" fill="#000000" fill-rule="nonzero" fill-opacity="1"></path><path clip-path="url(#clip250)" d="M91.5706 604.465 L99.2095 604.465 L99.2095 578.099 L90.8993 579.766 L90.8993 575.506 L99.1632 573.84 L103.839 573.84 L103.839 604.465 L111.478 604.465 L111.478 608.4 L91.5706 608.4 L91.5706 604.465 Z" fill="#000000" fill-rule="nonzero" fill-opacity="1"></path><path clip-path="url(#clip250)" d="M120.922 602.52 L125.807 602.52 L125.807 608.4 L120.922 608.4 L120.922 602.52 Z" fill="#000000" fill-rule="nonzero" fill-opacity="1"></path><path clip-path="url(#clip250)" d="M145.992 576.919 Q142.381 576.919 140.552 580.483 Q138.746 584.025 138.746 591.155 Q138.746 598.261 140.552 601.826 Q142.381 605.367 145.992 605.367 Q149.626 605.367 151.431 601.826 Q153.26 598.261 153.26 591.155 Q153.26 584.025 151.431 580.483 Q149.626 576.919 145.992 576.919 M145.992 573.215 Q151.802 573.215 154.857 577.821 Q157.936 582.405 157.936 591.155 Q157.936 599.881 154.857 604.488 Q151.802 609.071 145.992 609.071 Q140.181 609.071 137.103 604.488 Q134.047 599.881 134.047 591.155 Q134.047 582.405 137.103 577.821 Q140.181 573.215 145.992 573.215 Z" fill="#000000" fill-rule="nonzero" fill-opacity="1"></path><polyline clip-path="url(#clip253)" style="stroke:#009af9; stroke-linecap:round; stroke-linejoin:round; stroke-width:4; stroke-opacity:1; fill:none" points="255.035,767.183 271.328,715.153 287.621,667.77 303.914,629.268 320.207,603.085 336.5,591.561 352.793,595.724 369.086,615.204 385.379,648.259 401.671,691.937 417.964,742.337 434.257,794.956 450.55,845.095 466.843,888.273 483.136,920.636 499.429,939.29 515.722,942.571 532.015,930.185 548.308,903.238 564.601,864.139 580.894,816.378 597.187,764.223 613.48,712.332 629.773,665.341 646.066,627.447 662.359,602.036 678.652,591.376 694.945,596.421 711.238,616.72 727.531,650.459 743.824,694.624 760.117,745.271 776.41,797.876 792.703,847.738 808.996,890.405 825.289,922.065 841.582,939.89 857.875,942.287 874.168,929.043 890.461,901.34 906.754,861.654 923.047,813.529 939.34,761.263 955.633,709.527 971.926,662.941 988.219,625.666 1004.51,601.033 1020.8,591.241 1037.1,597.166 1053.39,618.278 1069.68,652.691 1085.98,697.332 1102.27,748.212 1118.56,800.786 1134.86,850.359 1151.15,892.502 1167.44,923.451 1183.73,940.441 1200.03,941.954 1216.32,927.855 1232.61,899.404 1248.91,859.142 1265.2,810.666 1281.49,758.305 1297.79,706.738 1314.08,660.57 1330.37,623.925 1346.66,600.077 1362.96,591.156 1379.25,597.959 1395.54,619.879 1411.84,654.956 1428.13,700.059 1444.42,751.157 1460.72,803.687 1477.01,852.957 1493.3,894.564 1509.59,924.793 1525.89,940.943 1542.18,941.571 1558.47,926.622 1574.77,897.431 1591.06,856.605 1607.35,807.791 1623.65,755.35 1639.94,703.966 1656.23,658.229 1672.52,622.224 1688.82,599.169 1705.11,591.121 1721.4,598.8 1737.7,621.521 1753.99,657.253 1770.28,702.805 1786.57,754.108 1802.87,806.578 1819.16,855.53 1835.45,896.589 1851.75,926.09 1868.04,941.395 1884.33,941.139 1900.63,925.344 1916.92,895.421 1933.21,854.042 1949.5,804.905 1965.8,752.398 1982.09,701.212 1998.38,655.919 2014.68,620.565 2030.97,598.307 2047.26,591.135 2063.56,599.689 2079.85,623.204 2096.14,659.581 2112.43,705.569 2128.73,757.062 2145.02,809.458 2161.31,858.078 2177.61,898.578 2193.9,927.342 2210.19,941.799 2226.49,940.658 2242.78,924.021 2259.07,893.374 2275.36,851.455 2291.66,802.008 "></polyline>
<path clip-path="url(#clip250)" d="M265.897 940.697 L534.209 940.697 L534.209 837.017 L265.897 837.017  Z" fill="#ffffff" fill-rule="evenodd" fill-opacity="1"></path>
<polyline clip-path="url(#clip250)" style="stroke:#000000; stroke-linecap:round; stroke-linejoin:round; stroke-width:4; stroke-opacity:1; fill:none" points="265.897,940.697 534.209,940.697 534.209,837.017 265.897,837.017 265.897,940.697 "></polyline>
<polyline clip-path="url(#clip250)" style="stroke:#009af9; stroke-linecap:round; stroke-linejoin:round; stroke-width:4; stroke-opacity:1; fill:none" points="289.884,888.857 433.805,888.857 "></polyline>
<path clip-path="url(#clip250)" d="M471.634 908.544 Q469.829 913.174 468.116 914.586 Q466.403 915.998 463.532 915.998 L460.13 915.998 L460.13 912.433 L462.63 912.433 Q464.389 912.433 465.361 911.6 Q466.333 910.766 467.514 907.664 L468.278 905.72 L457.792 880.211 L462.306 880.211 L470.407 900.489 L478.509 880.211 L483.023 880.211 L471.634 908.544 Z" fill="#000000" fill-rule="nonzero" fill-opacity="1"></path><path clip-path="url(#clip250)" d="M490.315 902.201 L497.954 902.201 L497.954 875.836 L489.643 877.503 L489.643 873.243 L497.907 871.577 L502.583 871.577 L502.583 902.201 L510.222 902.201 L510.222 906.137 L490.315 906.137 L490.315 902.201 Z" fill="#000000" fill-rule="nonzero" fill-opacity="1"></path><path clip-path="url(#clip250)" d="M193.936 1486.45 L2352.76 1486.45 L2352.76 1113.91 L193.936 1113.91  Z" fill="#ffffff" fill-rule="evenodd" fill-opacity="1"></path>
<defs>
  <clipPath id="clip254">
    <rect x="193" y="1113" width="2160" height="374"></rect>
  </clipPath>
</defs>
<polyline clip-path="url(#clip254)" style="stroke:#000000; stroke-linecap:round; stroke-linejoin:round; stroke-width:2; stroke-opacity:0.1; fill:none" points="238.742,1486.45 238.742,1113.91 "></polyline>
<polyline clip-path="url(#clip254)" style="stroke:#000000; stroke-linecap:round; stroke-linejoin:round; stroke-width:2; stroke-opacity:0.1; fill:none" points="564.601,1486.45 564.601,1113.91 "></polyline>
<polyline clip-path="url(#clip254)" style="stroke:#000000; stroke-linecap:round; stroke-linejoin:round; stroke-width:2; stroke-opacity:0.1; fill:none" points="890.461,1486.45 890.461,1113.91 "></polyline>
<polyline clip-path="url(#clip254)" style="stroke:#000000; stroke-linecap:round; stroke-linejoin:round; stroke-width:2; stroke-opacity:0.1; fill:none" points="1216.32,1486.45 1216.32,1113.91 "></polyline>
<polyline clip-path="url(#clip254)" style="stroke:#000000; stroke-linecap:round; stroke-linejoin:round; stroke-width:2; stroke-opacity:0.1; fill:none" points="1542.18,1486.45 1542.18,1113.91 "></polyline>
<polyline clip-path="url(#clip254)" style="stroke:#000000; stroke-linecap:round; stroke-linejoin:round; stroke-width:2; stroke-opacity:0.1; fill:none" points="1868.04,1486.45 1868.04,1113.91 "></polyline>
<polyline clip-path="url(#clip254)" style="stroke:#000000; stroke-linecap:round; stroke-linejoin:round; stroke-width:2; stroke-opacity:0.1; fill:none" points="2193.9,1486.45 2193.9,1113.91 "></polyline>
<polyline clip-path="url(#clip250)" style="stroke:#000000; stroke-linecap:round; stroke-linejoin:round; stroke-width:4; stroke-opacity:1; fill:none" points="193.936,1486.45 2352.76,1486.45 "></polyline>
<polyline clip-path="url(#clip250)" style="stroke:#000000; stroke-linecap:round; stroke-linejoin:round; stroke-width:4; stroke-opacity:1; fill:none" points="238.742,1486.45 238.742,1467.55 "></polyline>
<polyline clip-path="url(#clip250)" style="stroke:#000000; stroke-linecap:round; stroke-linejoin:round; stroke-width:4; stroke-opacity:1; fill:none" points="564.601,1486.45 564.601,1467.55 "></polyline>
<polyline clip-path="url(#clip250)" style="stroke:#000000; stroke-linecap:round; stroke-linejoin:round; stroke-width:4; stroke-opacity:1; fill:none" points="890.461,1486.45 890.461,1467.55 "></polyline>
<polyline clip-path="url(#clip250)" style="stroke:#000000; stroke-linecap:round; stroke-linejoin:round; stroke-width:4; stroke-opacity:1; fill:none" points="1216.32,1486.45 1216.32,1467.55 "></polyline>
<polyline clip-path="url(#clip250)" style="stroke:#000000; stroke-linecap:round; stroke-linejoin:round; stroke-width:4; stroke-opacity:1; fill:none" points="1542.18,1486.45 1542.18,1467.55 "></polyline>
<polyline clip-path="url(#clip250)" style="stroke:#000000; stroke-linecap:round; stroke-linejoin:round; stroke-width:4; stroke-opacity:1; fill:none" points="1868.04,1486.45 1868.04,1467.55 "></polyline>
<polyline clip-path="url(#clip250)" style="stroke:#000000; stroke-linecap:round; stroke-linejoin:round; stroke-width:4; stroke-opacity:1; fill:none" points="2193.9,1486.45 2193.9,1467.55 "></polyline>
<path clip-path="url(#clip250)" d="M238.742 1517.37 Q235.131 1517.37 233.302 1520.93 Q231.496 1524.47 231.496 1531.6 Q231.496 1538.71 233.302 1542.27 Q235.131 1545.82 238.742 1545.82 Q242.376 1545.82 244.181 1542.27 Q246.01 1538.71 246.01 1531.6 Q246.01 1524.47 244.181 1520.93 Q242.376 1517.37 238.742 1517.37 M238.742 1513.66 Q244.552 1513.66 247.607 1518.27 Q250.686 1522.85 250.686 1531.6 Q250.686 1540.33 247.607 1544.94 Q244.552 1549.52 238.742 1549.52 Q232.932 1549.52 229.853 1544.94 Q226.797 1540.33 226.797 1531.6 Q226.797 1522.85 229.853 1518.27 Q232.932 1513.66 238.742 1513.66 Z" fill="#000000" fill-rule="nonzero" fill-opacity="1"></path><path clip-path="url(#clip250)" d="M543.375 1544.91 L559.694 1544.91 L559.694 1548.85 L537.75 1548.85 L537.75 1544.91 Q540.412 1542.16 544.995 1537.53 Q549.601 1532.88 550.782 1531.53 Q553.027 1529.01 553.907 1527.27 Q554.81 1525.51 554.81 1523.82 Q554.81 1521.07 552.865 1519.33 Q550.944 1517.6 547.842 1517.6 Q545.643 1517.6 543.189 1518.36 Q540.759 1519.13 537.981 1520.68 L537.981 1515.95 Q540.805 1514.82 543.259 1514.24 Q545.713 1513.66 547.75 1513.66 Q553.12 1513.66 556.314 1516.35 Q559.509 1519.03 559.509 1523.52 Q559.509 1525.65 558.699 1527.57 Q557.912 1529.47 555.805 1532.07 Q555.226 1532.74 552.125 1535.95 Q549.023 1539.15 543.375 1544.91 Z" fill="#000000" fill-rule="nonzero" fill-opacity="1"></path><path clip-path="url(#clip250)" d="M579.509 1517.37 Q575.898 1517.37 574.069 1520.93 Q572.263 1524.47 572.263 1531.6 Q572.263 1538.71 574.069 1542.27 Q575.898 1545.82 579.509 1545.82 Q583.143 1545.82 584.948 1542.27 Q586.777 1538.71 586.777 1531.6 Q586.777 1524.47 584.948 1520.93 Q583.143 1517.37 579.509 1517.37 M579.509 1513.66 Q585.319 1513.66 588.374 1518.27 Q591.453 1522.85 591.453 1531.6 Q591.453 1540.33 588.374 1544.94 Q585.319 1549.52 579.509 1549.52 Q573.698 1549.52 570.62 1544.94 Q567.564 1540.33 567.564 1531.6 Q567.564 1522.85 570.62 1518.27 Q573.698 1513.66 579.509 1513.66 Z" fill="#000000" fill-rule="nonzero" fill-opacity="1"></path><path clip-path="url(#clip250)" d="M878.632 1518.36 L866.827 1536.81 L878.632 1536.81 L878.632 1518.36 M877.405 1514.29 L883.285 1514.29 L883.285 1536.81 L888.216 1536.81 L888.216 1540.7 L883.285 1540.7 L883.285 1548.85 L878.632 1548.85 L878.632 1540.7 L863.031 1540.7 L863.031 1536.19 L877.405 1514.29 Z" fill="#000000" fill-rule="nonzero" fill-opacity="1"></path><path clip-path="url(#clip250)" d="M905.947 1517.37 Q902.336 1517.37 900.507 1520.93 Q898.702 1524.47 898.702 1531.6 Q898.702 1538.71 900.507 1542.27 Q902.336 1545.82 905.947 1545.82 Q909.581 1545.82 911.387 1542.27 Q913.215 1538.71 913.215 1531.6 Q913.215 1524.47 911.387 1520.93 Q909.581 1517.37 905.947 1517.37 M905.947 1513.66 Q911.757 1513.66 914.813 1518.27 Q917.891 1522.85 917.891 1531.6 Q917.891 1540.33 914.813 1544.94 Q911.757 1549.52 905.947 1549.52 Q900.137 1549.52 897.058 1544.94 Q894.003 1540.33 894.003 1531.6 Q894.003 1522.85 897.058 1518.27 Q900.137 1513.66 905.947 1513.66 Z" fill="#000000" fill-rule="nonzero" fill-opacity="1"></path><path clip-path="url(#clip250)" d="M1201.73 1529.7 Q1198.58 1529.7 1196.73 1531.86 Q1194.9 1534.01 1194.9 1537.76 Q1194.9 1541.49 1196.73 1543.66 Q1198.58 1545.82 1201.73 1545.82 Q1204.87 1545.82 1206.7 1543.66 Q1208.55 1541.49 1208.55 1537.76 Q1208.55 1534.01 1206.7 1531.86 Q1204.87 1529.7 1201.73 1529.7 M1211.01 1515.05 L1211.01 1519.31 Q1209.25 1518.48 1207.44 1518.04 Q1205.66 1517.6 1203.9 1517.6 Q1199.27 1517.6 1196.82 1520.72 Q1194.39 1523.85 1194.04 1530.17 Q1195.41 1528.15 1197.47 1527.09 Q1199.53 1526 1202 1526 Q1207.21 1526 1210.22 1529.17 Q1213.25 1532.32 1213.25 1537.76 Q1213.25 1543.08 1210.11 1546.3 Q1206.96 1549.52 1201.73 1549.52 Q1195.73 1549.52 1192.56 1544.94 Q1189.39 1540.33 1189.39 1531.6 Q1189.39 1523.41 1193.28 1518.55 Q1197.17 1513.66 1203.72 1513.66 Q1205.48 1513.66 1207.26 1514.01 Q1209.06 1514.36 1211.01 1515.05 Z" fill="#000000" fill-rule="nonzero" fill-opacity="1"></path><path clip-path="url(#clip250)" d="M1231.31 1517.37 Q1227.7 1517.37 1225.87 1520.93 Q1224.06 1524.47 1224.06 1531.6 Q1224.06 1538.71 1225.87 1542.27 Q1227.7 1545.82 1231.31 1545.82 Q1234.94 1545.82 1236.75 1542.27 Q1238.58 1538.71 1238.58 1531.6 Q1238.58 1524.47 1236.75 1520.93 Q1234.94 1517.37 1231.31 1517.37 M1231.31 1513.66 Q1237.12 1513.66 1240.17 1518.27 Q1243.25 1522.85 1243.25 1531.6 Q1243.25 1540.33 1240.17 1544.94 Q1237.12 1549.52 1231.31 1549.52 Q1225.5 1549.52 1222.42 1544.94 Q1219.36 1540.33 1219.36 1531.6 Q1219.36 1522.85 1222.42 1518.27 Q1225.5 1513.66 1231.31 1513.66 Z" fill="#000000" fill-rule="nonzero" fill-opacity="1"></path><path clip-path="url(#clip250)" d="M1527.05 1532.44 Q1523.72 1532.44 1521.8 1534.22 Q1519.9 1536 1519.9 1539.13 Q1519.9 1542.25 1521.8 1544.03 Q1523.72 1545.82 1527.05 1545.82 Q1530.39 1545.82 1532.31 1544.03 Q1534.23 1542.23 1534.23 1539.13 Q1534.23 1536 1532.31 1534.22 Q1530.41 1532.44 1527.05 1532.44 M1522.38 1530.45 Q1519.37 1529.7 1517.68 1527.64 Q1516.01 1525.58 1516.01 1522.62 Q1516.01 1518.48 1518.95 1516.07 Q1521.91 1513.66 1527.05 1513.66 Q1532.21 1513.66 1535.15 1516.07 Q1538.09 1518.48 1538.09 1522.62 Q1538.09 1525.58 1536.4 1527.64 Q1534.74 1529.7 1531.75 1530.45 Q1535.13 1531.23 1537.01 1533.52 Q1538.9 1535.82 1538.9 1539.13 Q1538.9 1544.15 1535.83 1546.83 Q1532.77 1549.52 1527.05 1549.52 Q1521.34 1549.52 1518.26 1546.83 Q1515.2 1544.15 1515.2 1539.13 Q1515.2 1535.82 1517.1 1533.52 Q1519 1531.23 1522.38 1530.45 M1520.66 1523.06 Q1520.66 1525.75 1522.33 1527.25 Q1524.02 1528.76 1527.05 1528.76 Q1530.06 1528.76 1531.75 1527.25 Q1533.46 1525.75 1533.46 1523.06 Q1533.46 1520.38 1531.75 1518.87 Q1530.06 1517.37 1527.05 1517.37 Q1524.02 1517.37 1522.33 1518.87 Q1520.66 1520.38 1520.66 1523.06 Z" fill="#000000" fill-rule="nonzero" fill-opacity="1"></path><path clip-path="url(#clip250)" d="M1557.21 1517.37 Q1553.6 1517.37 1551.77 1520.93 Q1549.97 1524.47 1549.97 1531.6 Q1549.97 1538.71 1551.77 1542.27 Q1553.6 1545.82 1557.21 1545.82 Q1560.85 1545.82 1562.65 1542.27 Q1564.48 1538.71 1564.48 1531.6 Q1564.48 1524.47 1562.65 1520.93 Q1560.85 1517.37 1557.21 1517.37 M1557.21 1513.66 Q1563.02 1513.66 1566.08 1518.27 Q1569.16 1522.85 1569.16 1531.6 Q1569.16 1540.33 1566.08 1544.94 Q1563.02 1549.52 1557.21 1549.52 Q1551.4 1549.52 1548.33 1544.94 Q1545.27 1540.33 1545.27 1531.6 Q1545.27 1522.85 1548.33 1518.27 Q1551.4 1513.66 1557.21 1513.66 Z" fill="#000000" fill-rule="nonzero" fill-opacity="1"></path><path clip-path="url(#clip250)" d="M1827.65 1544.91 L1835.29 1544.91 L1835.29 1518.55 L1826.98 1520.21 L1826.98 1515.95 L1835.24 1514.29 L1839.91 1514.29 L1839.91 1544.91 L1847.55 1544.91 L1847.55 1548.85 L1827.65 1548.85 L1827.65 1544.91 Z" fill="#000000" fill-rule="nonzero" fill-opacity="1"></path><path clip-path="url(#clip250)" d="M1867 1517.37 Q1863.39 1517.37 1861.56 1520.93 Q1859.75 1524.47 1859.75 1531.6 Q1859.75 1538.71 1861.56 1542.27 Q1863.39 1545.82 1867 1545.82 Q1870.63 1545.82 1872.44 1542.27 Q1874.27 1538.71 1874.27 1531.6 Q1874.27 1524.47 1872.44 1520.93 Q1870.63 1517.37 1867 1517.37 M1867 1513.66 Q1872.81 1513.66 1875.86 1518.27 Q1878.94 1522.85 1878.94 1531.6 Q1878.94 1540.33 1875.86 1544.94 Q1872.81 1549.52 1867 1549.52 Q1861.19 1549.52 1858.11 1544.94 Q1855.05 1540.33 1855.05 1531.6 Q1855.05 1522.85 1858.11 1518.27 Q1861.19 1513.66 1867 1513.66 Z" fill="#000000" fill-rule="nonzero" fill-opacity="1"></path><path clip-path="url(#clip250)" d="M1897.16 1517.37 Q1893.55 1517.37 1891.72 1520.93 Q1889.91 1524.47 1889.91 1531.6 Q1889.91 1538.71 1891.72 1542.27 Q1893.55 1545.82 1897.16 1545.82 Q1900.79 1545.82 1902.6 1542.27 Q1904.43 1538.71 1904.43 1531.6 Q1904.43 1524.47 1902.6 1520.93 Q1900.79 1517.37 1897.16 1517.37 M1897.16 1513.66 Q1902.97 1513.66 1906.03 1518.27 Q1909.1 1522.85 1909.1 1531.6 Q1909.1 1540.33 1906.03 1544.94 Q1902.97 1549.52 1897.16 1549.52 Q1891.35 1549.52 1888.27 1544.94 Q1885.22 1540.33 1885.22 1531.6 Q1885.22 1522.85 1888.27 1518.27 Q1891.35 1513.66 1897.16 1513.66 Z" fill="#000000" fill-rule="nonzero" fill-opacity="1"></path><path clip-path="url(#clip250)" d="M2153.51 1544.91 L2161.14 1544.91 L2161.14 1518.55 L2152.83 1520.21 L2152.83 1515.95 L2161.1 1514.29 L2165.77 1514.29 L2165.77 1544.91 L2173.41 1544.91 L2173.41 1548.85 L2153.51 1548.85 L2153.51 1544.91 Z" fill="#000000" fill-rule="nonzero" fill-opacity="1"></path><path clip-path="url(#clip250)" d="M2186.89 1544.91 L2203.2 1544.91 L2203.2 1548.85 L2181.26 1548.85 L2181.26 1544.91 Q2183.92 1542.16 2188.51 1537.53 Q2193.11 1532.88 2194.29 1531.53 Q2196.54 1529.01 2197.42 1527.27 Q2198.32 1525.51 2198.32 1523.82 Q2198.32 1521.07 2196.38 1519.33 Q2194.45 1517.6 2191.35 1517.6 Q2189.15 1517.6 2186.7 1518.36 Q2184.27 1519.13 2181.49 1520.68 L2181.49 1515.95 Q2184.32 1514.82 2186.77 1514.24 Q2189.22 1513.66 2191.26 1513.66 Q2196.63 1513.66 2199.83 1516.35 Q2203.02 1519.03 2203.02 1523.52 Q2203.02 1525.65 2202.21 1527.57 Q2201.42 1529.47 2199.32 1532.07 Q2198.74 1532.74 2195.64 1535.95 Q2192.53 1539.15 2186.89 1544.91 Z" fill="#000000" fill-rule="nonzero" fill-opacity="1"></path><path clip-path="url(#clip250)" d="M2223.02 1517.37 Q2219.41 1517.37 2217.58 1520.93 Q2215.77 1524.47 2215.77 1531.6 Q2215.77 1538.71 2217.58 1542.27 Q2219.41 1545.82 2223.02 1545.82 Q2226.65 1545.82 2228.46 1542.27 Q2230.29 1538.71 2230.29 1531.6 Q2230.29 1524.47 2228.46 1520.93 Q2226.65 1517.37 2223.02 1517.37 M2223.02 1513.66 Q2228.83 1513.66 2231.89 1518.27 Q2234.96 1522.85 2234.96 1531.6 Q2234.96 1540.33 2231.89 1544.94 Q2228.83 1549.52 2223.02 1549.52 Q2217.21 1549.52 2214.13 1544.94 Q2211.08 1540.33 2211.08 1531.6 Q2211.08 1522.85 2214.13 1518.27 Q2217.21 1513.66 2223.02 1513.66 Z" fill="#000000" fill-rule="nonzero" fill-opacity="1"></path><polyline clip-path="url(#clip254)" style="stroke:#000000; stroke-linecap:round; stroke-linejoin:round; stroke-width:2; stroke-opacity:0.1; fill:none" points="193.936,1459.28 2352.76,1459.28 "></polyline>
<polyline clip-path="url(#clip254)" style="stroke:#000000; stroke-linecap:round; stroke-linejoin:round; stroke-width:2; stroke-opacity:0.1; fill:none" points="193.936,1401.56 2352.76,1401.56 "></polyline>
<polyline clip-path="url(#clip254)" style="stroke:#000000; stroke-linecap:round; stroke-linejoin:round; stroke-width:2; stroke-opacity:0.1; fill:none" points="193.936,1343.84 2352.76,1343.84 "></polyline>
<polyline clip-path="url(#clip254)" style="stroke:#000000; stroke-linecap:round; stroke-linejoin:round; stroke-width:2; stroke-opacity:0.1; fill:none" points="193.936,1286.12 2352.76,1286.12 "></polyline>
<polyline clip-path="url(#clip254)" style="stroke:#000000; stroke-linecap:round; stroke-linejoin:round; stroke-width:2; stroke-opacity:0.1; fill:none" points="193.936,1228.4 2352.76,1228.4 "></polyline>
<polyline clip-path="url(#clip254)" style="stroke:#000000; stroke-linecap:round; stroke-linejoin:round; stroke-width:2; stroke-opacity:0.1; fill:none" points="193.936,1170.69 2352.76,1170.69 "></polyline>
<polyline clip-path="url(#clip250)" style="stroke:#000000; stroke-linecap:round; stroke-linejoin:round; stroke-width:4; stroke-opacity:1; fill:none" points="193.936,1486.45 193.936,1113.91 "></polyline>
<polyline clip-path="url(#clip250)" style="stroke:#000000; stroke-linecap:round; stroke-linejoin:round; stroke-width:4; stroke-opacity:1; fill:none" points="193.936,1459.28 212.834,1459.28 "></polyline>
<polyline clip-path="url(#clip250)" style="stroke:#000000; stroke-linecap:round; stroke-linejoin:round; stroke-width:4; stroke-opacity:1; fill:none" points="193.936,1401.56 212.834,1401.56 "></polyline>
<polyline clip-path="url(#clip250)" style="stroke:#000000; stroke-linecap:round; stroke-linejoin:round; stroke-width:4; stroke-opacity:1; fill:none" points="193.936,1343.84 212.834,1343.84 "></polyline>
<polyline clip-path="url(#clip250)" style="stroke:#000000; stroke-linecap:round; stroke-linejoin:round; stroke-width:4; stroke-opacity:1; fill:none" points="193.936,1286.12 212.834,1286.12 "></polyline>
<polyline clip-path="url(#clip250)" style="stroke:#000000; stroke-linecap:round; stroke-linejoin:round; stroke-width:4; stroke-opacity:1; fill:none" points="193.936,1228.4 212.834,1228.4 "></polyline>
<polyline clip-path="url(#clip250)" style="stroke:#000000; stroke-linecap:round; stroke-linejoin:round; stroke-width:4; stroke-opacity:1; fill:none" points="193.936,1170.69 212.834,1170.69 "></polyline>
<path clip-path="url(#clip250)" d="M51.9875 1459.73 L81.6633 1459.73 L81.6633 1463.66 L51.9875 1463.66 L51.9875 1459.73 Z" fill="#000000" fill-rule="nonzero" fill-opacity="1"></path><path clip-path="url(#clip250)" d="M92.566 1472.62 L100.205 1472.62 L100.205 1446.26 L91.8947 1447.92 L91.8947 1443.67 L100.159 1442 L104.834 1442 L104.834 1472.62 L112.473 1472.62 L112.473 1476.56 L92.566 1476.56 L92.566 1472.62 Z" fill="#000000" fill-rule="nonzero" fill-opacity="1"></path><path clip-path="url(#clip250)" d="M121.918 1470.68 L126.802 1470.68 L126.802 1476.56 L121.918 1476.56 L121.918 1470.68 Z" fill="#000000" fill-rule="nonzero" fill-opacity="1"></path><path clip-path="url(#clip250)" d="M137.033 1442 L155.39 1442 L155.39 1445.93 L141.316 1445.93 L141.316 1454.41 Q142.334 1454.06 143.353 1453.9 Q144.371 1453.71 145.39 1453.71 Q151.177 1453.71 154.556 1456.88 Q157.936 1460.05 157.936 1465.47 Q157.936 1471.05 154.464 1474.15 Q150.992 1477.23 144.672 1477.23 Q142.496 1477.23 140.228 1476.86 Q137.982 1476.49 135.575 1475.75 L135.575 1471.05 Q137.658 1472.18 139.881 1472.74 Q142.103 1473.29 144.58 1473.29 Q148.584 1473.29 150.922 1471.19 Q153.26 1469.08 153.26 1465.47 Q153.26 1461.86 150.922 1459.75 Q148.584 1457.65 144.58 1457.65 Q142.705 1457.65 140.83 1458.06 Q138.978 1458.48 137.033 1459.36 L137.033 1442 Z" fill="#000000" fill-rule="nonzero" fill-opacity="1"></path><path clip-path="url(#clip250)" d="M50.9921 1402.01 L80.6679 1402.01 L80.6679 1405.95 L50.9921 1405.95 L50.9921 1402.01 Z" fill="#000000" fill-rule="nonzero" fill-opacity="1"></path><path clip-path="url(#clip250)" d="M91.5706 1414.9 L99.2095 1414.9 L99.2095 1388.54 L90.8993 1390.21 L90.8993 1385.95 L99.1632 1384.28 L103.839 1384.28 L103.839 1414.9 L111.478 1414.9 L111.478 1418.84 L91.5706 1418.84 L91.5706 1414.9 Z" fill="#000000" fill-rule="nonzero" fill-opacity="1"></path><path clip-path="url(#clip250)" d="M120.922 1412.96 L125.807 1412.96 L125.807 1418.84 L120.922 1418.84 L120.922 1412.96 Z" fill="#000000" fill-rule="nonzero" fill-opacity="1"></path><path clip-path="url(#clip250)" d="M145.992 1387.36 Q142.381 1387.36 140.552 1390.92 Q138.746 1394.47 138.746 1401.59 Q138.746 1408.7 140.552 1412.27 Q142.381 1415.81 145.992 1415.81 Q149.626 1415.81 151.431 1412.27 Q153.26 1408.7 153.26 1401.59 Q153.26 1394.47 151.431 1390.92 Q149.626 1387.36 145.992 1387.36 M145.992 1383.65 Q151.802 1383.65 154.857 1388.26 Q157.936 1392.84 157.936 1401.59 Q157.936 1410.32 154.857 1414.93 Q151.802 1419.51 145.992 1419.51 Q140.181 1419.51 137.103 1414.93 Q134.047 1410.32 134.047 1401.59 Q134.047 1392.84 137.103 1388.26 Q140.181 1383.65 145.992 1383.65 Z" fill="#000000" fill-rule="nonzero" fill-opacity="1"></path><path clip-path="url(#clip250)" d="M51.9875 1344.29 L81.6633 1344.29 L81.6633 1348.23 L51.9875 1348.23 L51.9875 1344.29 Z" fill="#000000" fill-rule="nonzero" fill-opacity="1"></path><path clip-path="url(#clip250)" d="M101.756 1329.64 Q98.1447 1329.64 96.316 1333.2 Q94.5104 1336.75 94.5104 1343.88 Q94.5104 1350.98 96.316 1354.55 Q98.1447 1358.09 101.756 1358.09 Q105.39 1358.09 107.196 1354.55 Q109.024 1350.98 109.024 1343.88 Q109.024 1336.75 107.196 1333.2 Q105.39 1329.64 101.756 1329.64 M101.756 1325.94 Q107.566 1325.94 110.621 1330.54 Q113.7 1335.13 113.7 1343.88 Q113.7 1352.6 110.621 1357.21 Q107.566 1361.79 101.756 1361.79 Q95.9456 1361.79 92.8669 1357.21 Q89.8114 1352.6 89.8114 1343.88 Q89.8114 1335.13 92.8669 1330.54 Q95.9456 1325.94 101.756 1325.94 Z" fill="#000000" fill-rule="nonzero" fill-opacity="1"></path><path clip-path="url(#clip250)" d="M121.918 1355.24 L126.802 1355.24 L126.802 1361.12 L121.918 1361.12 L121.918 1355.24 Z" fill="#000000" fill-rule="nonzero" fill-opacity="1"></path><path clip-path="url(#clip250)" d="M137.033 1326.56 L155.39 1326.56 L155.39 1330.5 L141.316 1330.5 L141.316 1338.97 Q142.334 1338.62 143.353 1338.46 Q144.371 1338.27 145.39 1338.27 Q151.177 1338.27 154.556 1341.45 Q157.936 1344.62 157.936 1350.03 Q157.936 1355.61 154.464 1358.71 Q150.992 1361.79 144.672 1361.79 Q142.496 1361.79 140.228 1361.42 Q137.982 1361.05 135.575 1360.31 L135.575 1355.61 Q137.658 1356.75 139.881 1357.3 Q142.103 1357.86 144.58 1357.86 Q148.584 1357.86 150.922 1355.75 Q153.26 1353.64 153.26 1350.03 Q153.26 1346.42 150.922 1344.32 Q148.584 1342.21 144.58 1342.21 Q142.705 1342.21 140.83 1342.63 Q138.978 1343.04 137.033 1343.92 L137.033 1326.56 Z" fill="#000000" fill-rule="nonzero" fill-opacity="1"></path><path clip-path="url(#clip250)" d="M100.76 1271.92 Q97.1493 1271.92 95.3206 1275.49 Q93.515 1279.03 93.515 1286.16 Q93.515 1293.26 95.3206 1296.83 Q97.1493 1300.37 100.76 1300.37 Q104.395 1300.37 106.2 1296.83 Q108.029 1293.26 108.029 1286.16 Q108.029 1279.03 106.2 1275.49 Q104.395 1271.92 100.76 1271.92 M100.76 1268.22 Q106.571 1268.22 109.626 1272.82 Q112.705 1277.41 112.705 1286.16 Q112.705 1294.88 109.626 1299.49 Q106.571 1304.07 100.76 1304.07 Q94.9502 1304.07 91.8715 1299.49 Q88.816 1294.88 88.816 1286.16 Q88.816 1277.41 91.8715 1272.82 Q94.9502 1268.22 100.76 1268.22 Z" fill="#000000" fill-rule="nonzero" fill-opacity="1"></path><path clip-path="url(#clip250)" d="M120.922 1297.52 L125.807 1297.52 L125.807 1303.4 L120.922 1303.4 L120.922 1297.52 Z" fill="#000000" fill-rule="nonzero" fill-opacity="1"></path><path clip-path="url(#clip250)" d="M145.992 1271.92 Q142.381 1271.92 140.552 1275.49 Q138.746 1279.03 138.746 1286.16 Q138.746 1293.26 140.552 1296.83 Q142.381 1300.37 145.992 1300.37 Q149.626 1300.37 151.431 1296.83 Q153.26 1293.26 153.26 1286.16 Q153.26 1279.03 151.431 1275.49 Q149.626 1271.92 145.992 1271.92 M145.992 1268.22 Q151.802 1268.22 154.857 1272.82 Q157.936 1277.41 157.936 1286.16 Q157.936 1294.88 154.857 1299.49 Q151.802 1304.07 145.992 1304.07 Q140.181 1304.07 137.103 1299.49 Q134.047 1294.88 134.047 1286.16 Q134.047 1277.41 137.103 1272.82 Q140.181 1268.22 145.992 1268.22 Z" fill="#000000" fill-rule="nonzero" fill-opacity="1"></path><path clip-path="url(#clip250)" d="M101.756 1214.2 Q98.1447 1214.2 96.316 1217.77 Q94.5104 1221.31 94.5104 1228.44 Q94.5104 1235.55 96.316 1239.11 Q98.1447 1242.65 101.756 1242.65 Q105.39 1242.65 107.196 1239.11 Q109.024 1235.55 109.024 1228.44 Q109.024 1221.31 107.196 1217.77 Q105.39 1214.2 101.756 1214.2 M101.756 1210.5 Q107.566 1210.5 110.621 1215.11 Q113.7 1219.69 113.7 1228.44 Q113.7 1237.17 110.621 1241.77 Q107.566 1246.36 101.756 1246.36 Q95.9456 1246.36 92.8669 1241.77 Q89.8114 1237.17 89.8114 1228.44 Q89.8114 1219.69 92.8669 1215.11 Q95.9456 1210.5 101.756 1210.5 Z" fill="#000000" fill-rule="nonzero" fill-opacity="1"></path><path clip-path="url(#clip250)" d="M121.918 1239.8 L126.802 1239.8 L126.802 1245.68 L121.918 1245.68 L121.918 1239.8 Z" fill="#000000" fill-rule="nonzero" fill-opacity="1"></path><path clip-path="url(#clip250)" d="M137.033 1211.12 L155.39 1211.12 L155.39 1215.06 L141.316 1215.06 L141.316 1223.53 Q142.334 1223.18 143.353 1223.02 Q144.371 1222.84 145.39 1222.84 Q151.177 1222.84 154.556 1226.01 Q157.936 1229.18 157.936 1234.6 Q157.936 1240.18 154.464 1243.28 Q150.992 1246.36 144.672 1246.36 Q142.496 1246.36 140.228 1245.99 Q137.982 1245.62 135.575 1244.87 L135.575 1240.18 Q137.658 1241.31 139.881 1241.87 Q142.103 1242.42 144.58 1242.42 Q148.584 1242.42 150.922 1240.31 Q153.26 1238.21 153.26 1234.6 Q153.26 1230.99 150.922 1228.88 Q148.584 1226.77 144.58 1226.77 Q142.705 1226.77 140.83 1227.19 Q138.978 1227.61 137.033 1228.49 L137.033 1211.12 Z" fill="#000000" fill-rule="nonzero" fill-opacity="1"></path><path clip-path="url(#clip250)" d="M91.5706 1184.03 L99.2095 1184.03 L99.2095 1157.67 L90.8993 1159.33 L90.8993 1155.07 L99.1632 1153.41 L103.839 1153.41 L103.839 1184.03 L111.478 1184.03 L111.478 1187.97 L91.5706 1187.97 L91.5706 1184.03 Z" fill="#000000" fill-rule="nonzero" fill-opacity="1"></path><path clip-path="url(#clip250)" d="M120.922 1182.09 L125.807 1182.09 L125.807 1187.97 L120.922 1187.97 L120.922 1182.09 Z" fill="#000000" fill-rule="nonzero" fill-opacity="1"></path><path clip-path="url(#clip250)" d="M145.992 1156.48 Q142.381 1156.48 140.552 1160.05 Q138.746 1163.59 138.746 1170.72 Q138.746 1177.83 140.552 1181.39 Q142.381 1184.93 145.992 1184.93 Q149.626 1184.93 151.431 1181.39 Q153.26 1177.83 153.26 1170.72 Q153.26 1163.59 151.431 1160.05 Q149.626 1156.48 145.992 1156.48 M145.992 1152.78 Q151.802 1152.78 154.857 1157.39 Q157.936 1161.97 157.936 1170.72 Q157.936 1179.45 154.857 1184.05 Q151.802 1188.64 145.992 1188.64 Q140.181 1188.64 137.103 1184.05 Q134.047 1179.45 134.047 1170.72 Q134.047 1161.97 137.103 1157.39 Q140.181 1152.78 145.992 1152.78 Z" fill="#000000" fill-rule="nonzero" fill-opacity="1"></path><polyline clip-path="url(#clip254)" style="stroke:#009af9; stroke-linecap:round; stroke-linejoin:round; stroke-width:4; stroke-opacity:1; fill:none" points="255.035,1371.21 271.328,1260.28 287.621,1330.6 303.914,1277.45 320.207,1193.92 336.5,1253.12 352.793,1350.68 369.086,1304.67 385.379,1225.39 401.671,1277.19 417.964,1275.85 434.257,1355.35 450.55,1354.17 466.843,1403.22 483.136,1279.55 499.429,1224.11 515.722,1305.78 532.015,1227.44 548.308,1204.5 564.601,1243.84 580.894,1192.44 597.187,1266.79 613.48,1367.07 629.773,1288.27 646.066,1193.5 662.359,1280.96 678.652,1180.18 694.945,1370.77 711.238,1248.84 727.531,1345.42 743.824,1238.24 760.117,1233.72 776.41,1262.82 792.703,1475.9 808.996,1300.4 825.289,1225.24 841.582,1269.73 857.875,1264.2 874.168,1252.8 890.461,1251.62 906.754,1269.41 923.047,1284.3 939.34,1276.44 955.633,1224.62 971.926,1383.96 988.219,1216.63 1004.51,1279.53 1020.8,1275.8 1037.1,1263.54 1053.39,1269.83 1069.68,1383.42 1085.98,1307.9 1102.27,1195.67 1118.56,1242.93 1134.86,1308.21 1151.15,1324.07 1167.44,1247.37 1183.73,1305.23 1200.03,1246.75 1216.32,1316.35 1232.61,1243.16 1248.91,1340.35 1265.2,1302.8 1281.49,1215.15 1297.79,1267.56 1314.08,1278.54 1330.37,1329.2 1346.66,1353.11 1362.96,1319.23 1379.25,1287.38 1395.54,1213.68 1411.84,1250.75 1428.13,1267.63 1444.42,1201.04 1460.72,1303.53 1477.01,1171.99 1493.3,1243.7 1509.59,1415.94 1525.89,1302.36 1542.18,1332.32 1558.47,1293.28 1574.77,1228.39 1591.06,1329.77 1607.35,1312.44 1623.65,1257.62 1639.94,1233.54 1656.23,1235.9 1672.52,1362.23 1688.82,1254.77 1705.11,1291.36 1721.4,1363.6 1737.7,1352.14 1753.99,1412.27 1770.28,1191.69 1786.57,1366.46 1802.87,1271.66 1819.16,1226.01 1835.45,1195.24 1851.75,1275.52 1868.04,1211.25 1884.33,1438.28 1900.63,1250.95 1916.92,1174.13 1933.21,1384.5 1949.5,1200.06 1965.8,1235.29 1982.09,1312.26 1998.38,1319.3 2014.68,1295.16 2030.97,1393.89 2047.26,1257.41 2063.56,1418.05 2079.85,1218.43 2096.14,1285.28 2112.43,1332.78 2128.73,1290.09 2145.02,1353.54 2161.31,1276.66 2177.61,1317.69 2193.9,1282.11 2210.19,1124.45 2226.49,1210.7 2242.78,1341.63 2259.07,1300.78 2275.36,1381.94 2291.66,1329.42 "></polyline>
<path clip-path="url(#clip250)" d="M265.897 1474.03 L534.209 1474.03 L534.209 1370.35 L265.897 1370.35  Z" fill="#ffffff" fill-rule="evenodd" fill-opacity="1"></path>
<polyline clip-path="url(#clip250)" style="stroke:#000000; stroke-linecap:round; stroke-linejoin:round; stroke-width:4; stroke-opacity:1; fill:none" points="265.897,1474.03 534.209,1474.03 534.209,1370.35 265.897,1370.35 265.897,1474.03 "></polyline>
<polyline clip-path="url(#clip250)" style="stroke:#009af9; stroke-linecap:round; stroke-linejoin:round; stroke-width:4; stroke-opacity:1; fill:none" points="289.884,1422.19 433.805,1422.19 "></polyline>
<path clip-path="url(#clip250)" d="M471.634 1441.88 Q469.829 1446.51 468.116 1447.92 Q466.403 1449.33 463.532 1449.33 L460.13 1449.33 L460.13 1445.77 L462.63 1445.77 Q464.389 1445.77 465.361 1444.93 Q466.333 1444.1 467.514 1441 L468.278 1439.05 L457.792 1413.54 L462.306 1413.54 L470.407 1433.82 L478.509 1413.54 L483.023 1413.54 L471.634 1441.88 Z" fill="#000000" fill-rule="nonzero" fill-opacity="1"></path><path clip-path="url(#clip250)" d="M490.315 1435.53 L497.954 1435.53 L497.954 1409.17 L489.643 1410.84 L489.643 1406.58 L497.907 1404.91 L502.583 1404.91 L502.583 1435.53 L510.222 1435.53 L510.222 1439.47 L490.315 1439.47 L490.315 1435.53 Z" fill="#000000" fill-rule="nonzero" fill-opacity="1"></path></svg>